<?xml version="1.0" encoding="utf-8" standalone="no"?>
<!DOCTYPE svg PUBLIC "-//W3C//DTD SVG 1.1//EN"
  "http://www.w3.org/Graphics/SVG/1.1/DTD/svg11.dtd">
<svg xmlns:xlink="http://www.w3.org/1999/xlink" width="252pt" height="288pt" viewBox="0 0 252 288" xmlns="http://www.w3.org/2000/svg" version="1.1">
 <metadata>
  <rdf:RDF xmlns:dc="http://purl.org/dc/elements/1.1/" xmlns:cc="http://creativecommons.org/ns#" xmlns:rdf="http://www.w3.org/1999/02/22-rdf-syntax-ns#">
   <cc:Work>
    <dc:type rdf:resource="http://purl.org/dc/dcmitype/StillImage"/>
    <dc:date>2025-07-02T14:57:28.023106</dc:date>
    <dc:format>image/svg+xml</dc:format>
    <dc:creator>
     <cc:Agent>
      <dc:title>Matplotlib v3.9.2, https://matplotlib.org/</dc:title>
     </cc:Agent>
    </dc:creator>
   </cc:Work>
  </rdf:RDF>
 </metadata>
 <defs>
  <style type="text/css">*{stroke-linejoin: round; stroke-linecap: butt}</style>
 </defs>
 <g id="figure_1">
  <g id="patch_1">
   <path d="M 0 288 
L 252 288 
L 252 0 
L 0 0 
z
" style="fill: #ffffff"/>
  </g>
  <g id="axes_1">
   <g id="patch_2">
    <path d="M 31.5 256.32 
L 226.8 256.32 
L 226.8 34.56 
L 31.5 34.56 
z
" style="fill: #ffffff"/>
   </g>
   <g id="PathCollection_1">
    <defs>
     <path id="C0_0_0783b05c8c" d="M 0 3.535534 
C 0.937635 3.535534 1.836992 3.163008 2.5 2.5 
C 3.163008 1.836992 3.535534 0.937635 3.535534 -0 
C 3.535534 -0.937635 3.163008 -1.836992 2.5 -2.5 
C 1.836992 -3.163008 0.937635 -3.535534 0 -3.535534 
C -0.937635 -3.535534 -1.836992 -3.163008 -2.5 -2.5 
C -3.163008 -1.836992 -3.535534 -0.937635 -3.535534 0 
C -3.535534 0.937635 -3.163008 1.836992 -2.5 2.5 
C -1.836992 3.163008 -0.937635 3.535534 0 3.535534 
z
"/>
    </defs>
    <g clip-path="url(#p389cbf561e)">
     <use xlink:href="#C0_0_0783b05c8c" x="40.377273" y="57.675441" style="fill: none; stroke: #000000; stroke-width: 2"/>
    </g>
    <g clip-path="url(#p389cbf561e)">
     <use xlink:href="#C0_0_0783b05c8c" x="75.886364" y="175.578954" style="fill: none; stroke: #000000; stroke-width: 2"/>
    </g>
    <g clip-path="url(#p389cbf561e)">
     <use xlink:href="#C0_0_0783b05c8c" x="111.395455" y="142.17131" style="fill: none; stroke: #000000; stroke-width: 2"/>
    </g>
    <g clip-path="url(#p389cbf561e)">
     <use xlink:href="#C0_0_0783b05c8c" x="146.904545" y="185.1501" style="fill: none; stroke: #000000; stroke-width: 2"/>
    </g>
    <g clip-path="url(#p389cbf561e)">
     <use xlink:href="#C0_0_0783b05c8c" x="182.413636" y="208.45955" style="fill: none; stroke: #000000; stroke-width: 2"/>
    </g>
    <g clip-path="url(#p389cbf561e)">
     <use xlink:href="#C0_0_0783b05c8c" x="217.922727" y="166.25551" style="fill: none; stroke: #000000; stroke-width: 2"/>
    </g>
   </g>
   <g id="PathCollection_2">
    <defs>
     <path id="mb66a3b2a56" d="M 0 3.535534 
C 0.937635 3.535534 1.836992 3.163008 2.5 2.5 
C 3.163008 1.836992 3.535534 0.937635 3.535534 0 
C 3.535534 -0.937635 3.163008 -1.836992 2.5 -2.5 
C 1.836992 -3.163008 0.937635 -3.535534 0 -3.535534 
C -0.937635 -3.535534 -1.836992 -3.163008 -2.5 -2.5 
C -3.163008 -1.836992 -3.535534 -0.937635 -3.535534 0 
C -3.535534 0.937635 -3.163008 1.836992 -2.5 2.5 
C -1.836992 3.163008 -0.937635 3.535534 0 3.535534 
z
" style="stroke: #000000; stroke-width: 2"/>
    </defs>
    <g clip-path="url(#p389cbf561e)">
     <use xlink:href="#mb66a3b2a56" x="40.377273" y="223.347438" style="stroke: #000000; stroke-width: 2"/>
     <use xlink:href="#mb66a3b2a56" x="75.886364" y="240.570472" style="stroke: #000000; stroke-width: 2"/>
     <use xlink:href="#mb66a3b2a56" x="111.395455" y="231.5978" style="stroke: #000000; stroke-width: 2"/>
     <use xlink:href="#mb66a3b2a56" x="146.904545" y="244.252471" style="stroke: #000000; stroke-width: 2"/>
     <use xlink:href="#mb66a3b2a56" x="182.413636" y="245.727525" style="stroke: #000000; stroke-width: 2"/>
     <use xlink:href="#mb66a3b2a56" x="217.922727" y="240.2375" style="stroke: #000000; stroke-width: 2"/>
    </g>
   </g>
   <g id="matplotlib.axis_1">
    <g id="xtick_1">
     <g id="line2d_1">
      <defs>
       <path id="m57fb7168d1" d="M 0 0 
L 0 6 
" style="stroke: #d3d3d3; stroke-width: 2"/>
      </defs>
      <g>
       <use xlink:href="#m57fb7168d1" x="40.377273" y="256.32" style="fill: #d3d3d3; stroke: #d3d3d3; stroke-width: 2"/>
      </g>
     </g>
     <g id="text_1">
      <text style="font: 14px 'Arial'" transform="translate(30.006778 298.76521) rotate(-45)">A02m</text>
     </g>
    </g>
    <g id="xtick_2">
     <g id="line2d_2">
      <g>
       <use xlink:href="#m57fb7168d1" x="75.886364" y="256.32" style="fill: #d3d3d3; stroke: #d3d3d3; stroke-width: 2"/>
      </g>
     </g>
     <g id="text_2">
      <text style="font: 14px 'Arial'" transform="translate(66.886331 296.024287) rotate(-45)">A02n</text>
     </g>
    </g>
    <g id="xtick_3">
     <g id="line2d_3">
      <g>
       <use xlink:href="#m57fb7168d1" x="111.395455" y="256.32" style="fill: #d3d3d3; stroke: #d3d3d3; stroke-width: 2"/>
      </g>
     </g>
     <g id="text_3">
      <text style="font: 14px 'Arial'" transform="translate(102.395422 296.024287) rotate(-45)">A09a</text>
     </g>
    </g>
    <g id="xtick_4">
     <g id="line2d_4">
      <g>
       <use xlink:href="#m57fb7168d1" x="146.904545" y="256.32" style="fill: #d3d3d3; stroke: #d3d3d3; stroke-width: 2"/>
      </g>
     </g>
     <g id="text_4">
      <text style="font: 14px 'Arial'" transform="translate(138.182162 295.468987) rotate(-45)">A09c</text>
     </g>
    </g>
    <g id="xtick_5">
     <g id="line2d_5">
      <g>
       <use xlink:href="#m57fb7168d1" x="182.413636" y="256.32" style="fill: #d3d3d3; stroke: #d3d3d3; stroke-width: 2"/>
      </g>
     </g>
     <g id="text_5">
      <text style="font: 14px 'Arial'" transform="translate(175.066355 292.718784) rotate(-45)">A09l</text>
     </g>
    </g>
    <g id="xtick_6">
     <g id="line2d_6">
      <g>
       <use xlink:href="#m57fb7168d1" x="217.922727" y="256.32" style="fill: #d3d3d3; stroke: #d3d3d3; stroke-width: 2"/>
      </g>
     </g>
     <g id="text_6">
      <text style="font: 14px 'Arial'" transform="translate(208.922694 296.024287) rotate(-45)">A10a</text>
     </g>
    </g>
   </g>
   <g id="matplotlib.axis_2">
    <g id="ytick_1">
     <g id="line2d_7">
      <defs>
       <path id="m1a4248cfb4" d="M 0 0 
L -6 0 
" style="stroke: #d3d3d3; stroke-width: 2"/>
      </defs>
      <g>
       <use xlink:href="#m1a4248cfb4" x="31.5" y="256.32" style="fill: #d3d3d3; stroke: #d3d3d3; stroke-width: 2"/>
      </g>
     </g>
     <g id="text_7">
      <text style="font: 14px 'Arial'; text-anchor: end" x="22" y="261.330469" transform="rotate(-0 22 261.330469)">0</text>
     </g>
    </g>
    <g id="ytick_2">
     <g id="line2d_8">
      <g>
       <use xlink:href="#m1a4248cfb4" x="31.5" y="228.6" style="fill: #d3d3d3; stroke: #d3d3d3; stroke-width: 2"/>
      </g>
     </g>
     <g id="text_8">
      <text style="font: 14px 'Arial'; text-anchor: end" x="22" y="233.610469" transform="rotate(-0 22 233.610469)">1</text>
     </g>
    </g>
    <g id="ytick_3">
     <g id="line2d_9">
      <g>
       <use xlink:href="#m1a4248cfb4" x="31.5" y="200.88" style="fill: #d3d3d3; stroke: #d3d3d3; stroke-width: 2"/>
      </g>
     </g>
     <g id="text_9">
      <text style="font: 14px 'Arial'; text-anchor: end" x="22" y="205.890469" transform="rotate(-0 22 205.890469)">2</text>
     </g>
    </g>
    <g id="ytick_4">
     <g id="line2d_10">
      <g>
       <use xlink:href="#m1a4248cfb4" x="31.5" y="173.16" style="fill: #d3d3d3; stroke: #d3d3d3; stroke-width: 2"/>
      </g>
     </g>
     <g id="text_10">
      <text style="font: 14px 'Arial'; text-anchor: end" x="22" y="178.170469" transform="rotate(-0 22 178.170469)">3</text>
     </g>
    </g>
    <g id="ytick_5">
     <g id="line2d_11">
      <g>
       <use xlink:href="#m1a4248cfb4" x="31.5" y="145.44" style="fill: #d3d3d3; stroke: #d3d3d3; stroke-width: 2"/>
      </g>
     </g>
     <g id="text_11">
      <text style="font: 14px 'Arial'; text-anchor: end" x="22" y="150.450469" transform="rotate(-0 22 150.450469)">4</text>
     </g>
    </g>
    <g id="ytick_6">
     <g id="line2d_12">
      <g>
       <use xlink:href="#m1a4248cfb4" x="31.5" y="117.72" style="fill: #d3d3d3; stroke: #d3d3d3; stroke-width: 2"/>
      </g>
     </g>
     <g id="text_12">
      <text style="font: 14px 'Arial'; text-anchor: end" x="22" y="122.730469" transform="rotate(-0 22 122.730469)">5</text>
     </g>
    </g>
    <g id="ytick_7">
     <g id="line2d_13">
      <g>
       <use xlink:href="#m1a4248cfb4" x="31.5" y="90" style="fill: #d3d3d3; stroke: #d3d3d3; stroke-width: 2"/>
      </g>
     </g>
     <g id="text_13">
      <text style="font: 14px 'Arial'; text-anchor: end" x="22" y="95.010469" transform="rotate(-0 22 95.010469)">6</text>
     </g>
    </g>
    <g id="ytick_8">
     <g id="line2d_14">
      <g>
       <use xlink:href="#m1a4248cfb4" x="31.5" y="62.28" style="fill: #d3d3d3; stroke: #d3d3d3; stroke-width: 2"/>
      </g>
     </g>
     <g id="text_14">
      <text style="font: 14px 'Arial'; text-anchor: end" x="22" y="67.290469" transform="rotate(-0 22 67.290469)">7</text>
     </g>
    </g>
    <g id="ytick_9">
     <g id="line2d_15">
      <g>
       <use xlink:href="#m1a4248cfb4" x="31.5" y="34.56" style="fill: #d3d3d3; stroke: #d3d3d3; stroke-width: 2"/>
      </g>
     </g>
     <g id="text_15">
      <text style="font: 14px 'Arial'; text-anchor: end" x="22" y="39.570469" transform="rotate(-0 22 39.570469)">8</text>
     </g>
    </g>
    <g id="text_16">
     <text style="font: 18px 'Arial'; text-anchor: middle" x="6.42625" y="145.44" transform="rotate(-90 6.42625 145.44)">L3/L1 overlap fold change</text>
    </g>
   </g>
   <g id="LineCollection_1">
    <path d="M 40.377273 162.970777 
L 217.922727 162.970777 
" clip-path="url(#p389cbf561e)" style="fill: none; stroke-dasharray: 7.4,3.2; stroke-dashoffset: 0; stroke: #808080; stroke-width: 2"/>
    <path d="M 40.377273 238.85788 
L 217.922727 238.85788 
" clip-path="url(#p389cbf561e)" style="fill: none; stroke: #808080; stroke-width: 2"/>
    <path d="M 40.377273 232.396896 
L 217.922727 232.396896 
" clip-path="url(#p389cbf561e)" style="fill: none; stroke: #8b0000; stroke-width: 2"/>
   </g>
   <g id="patch_3">
    <path d="M 31.5 256.32 
L 31.5 34.56 
" style="fill: none; stroke: #d3d3d3; stroke-width: 2; stroke-linejoin: miter; stroke-linecap: square"/>
   </g>
   <g id="patch_4">
    <path d="M 31.5 256.32 
L 226.8 256.32 
" style="fill: none; stroke: #d3d3d3; stroke-width: 2; stroke-linejoin: miter; stroke-linecap: square"/>
   </g>
   <g id="legend_1">
    <g id="patch_5">
     <path d="M 62.800938 85.366875 
L 217 85.366875 
Q 219.8 85.366875 219.8 82.566875 
L 219.8 44.36 
Q 219.8 41.56 217 41.56 
L 62.800938 41.56 
Q 60.000938 41.56 60.000938 44.36 
L 60.000938 82.566875 
Q 60.000938 85.366875 62.800938 85.366875 
z
" style="fill: #ffffff; opacity: 0.8; stroke: #d3d3d3; stroke-linejoin: miter"/>
    </g>
    <g id="PathCollection_3">
     <path d="M 76.100938 57.041471 
C 77.038572 57.041471 77.93793 56.668945 78.600938 56.005937 
C 79.263945 55.34293 79.636471 54.443572 79.636471 53.505937 
C 79.636471 52.568303 79.263945 51.668945 78.600938 51.005937 
C 77.93793 50.34293 77.038572 49.970404 76.100938 49.970404 
C 75.163303 49.970404 74.263945 50.34293 73.600938 51.005937 
C 72.93793 51.668945 72.565404 52.568303 72.565404 53.505937 
C 72.565404 54.443572 72.93793 55.34293 73.600938 56.005937 
C 74.263945 56.668945 75.163303 57.041471 76.100938 57.041471 
L 76.100938 57.041471 
z
" style="fill: none; stroke: #000000; stroke-width: 2"/>
    </g>
    <g id="text_17">
     <text style="font: 14px 'Arial'; text-anchor: start" x="93.600938" y="57.180937" transform="rotate(-0 93.600938 57.180937)">Absolute overlap</text>
    </g>
    <g id="PathCollection_4">
     <g>
      <use xlink:href="#mb66a3b2a56" x="76.100938" y="73.309375" style="stroke: #000000; stroke-width: 2"/>
     </g>
    </g>
    <g id="text_18">
     <text style="font: 14px 'Arial'; text-anchor: start" x="93.600938" y="76.984375" transform="rotate(-0 93.600938 76.984375)">Normalized overlap</text>
    </g>
   </g>
  </g>
 </g>
 <defs>
  <clipPath id="p389cbf561e">
   <rect x="31.5" y="34.56" width="195.3" height="221.76"/>
  </clipPath>
 </defs>
</svg>
