<?xml version="1.0" encoding="utf-8" standalone="no"?>
<!DOCTYPE svg PUBLIC "-//W3C//DTD SVG 1.1//EN"
  "http://www.w3.org/Graphics/SVG/1.1/DTD/svg11.dtd">
<svg xmlns:xlink="http://www.w3.org/1999/xlink" width="288pt" height="288pt" viewBox="0 0 288 288" xmlns="http://www.w3.org/2000/svg" version="1.1">
 <metadata>
  <rdf:RDF xmlns:dc="http://purl.org/dc/elements/1.1/" xmlns:cc="http://creativecommons.org/ns#" xmlns:rdf="http://www.w3.org/1999/02/22-rdf-syntax-ns#">
   <cc:Work>
    <dc:type rdf:resource="http://purl.org/dc/dcmitype/StillImage"/>
    <dc:date>2025-07-02T14:40:30.487113</dc:date>
    <dc:format>image/svg+xml</dc:format>
    <dc:creator>
     <cc:Agent>
      <dc:title>Matplotlib v3.9.2, https://matplotlib.org/</dc:title>
     </cc:Agent>
    </dc:creator>
   </cc:Work>
  </rdf:RDF>
 </metadata>
 <defs>
  <style type="text/css">*{stroke-linejoin: round; stroke-linecap: butt}</style>
 </defs>
 <g id="figure_1">
  <g id="patch_1">
   <path d="M 0 288 
L 288 288 
L 288 0 
L 0 0 
z
" style="fill: #ffffff"/>
  </g>
  <g id="axes_1">
   <g id="patch_2">
    <path d="M 36 256.32 
L 259.2 256.32 
L 259.2 34.56 
L 36 34.56 
z
" style="fill: #ffffff"/>
   </g>
   <g id="PathCollection_1">
    <defs>
     <path id="mfe3132274a" d="M 0 3 
C 0.795609 3 1.55874 2.683901 2.12132 2.12132 
C 2.683901 1.55874 3 0.795609 3 0 
C 3 -0.795609 2.683901 -1.55874 2.12132 -2.12132 
C 1.55874 -2.683901 0.795609 -3 0 -3 
C -0.795609 -3 -1.55874 -2.683901 -2.12132 -2.12132 
C -2.683901 -1.55874 -3 -0.795609 -3 0 
C -3 0.795609 -2.683901 1.55874 -2.12132 2.12132 
C -1.55874 2.683901 -0.795609 3 0 3 
z
" style="stroke: #ffffff; stroke-width: 0.48"/>
    </defs>
    <g clip-path="url(#pf2ce9fba21)">
     <use xlink:href="#mfe3132274a" x="60.367151" y="211.355417" style="stroke: #ffffff; stroke-width: 0.48"/>
     <use xlink:href="#mfe3132274a" x="106.147075" y="211.512718" style="stroke: #ffffff; stroke-width: 0.48"/>
     <use xlink:href="#mfe3132274a" x="142.696309" y="206.314332" style="stroke: #ffffff; stroke-width: 0.48"/>
     <use xlink:href="#mfe3132274a" x="46.145455" y="204.188461" style="stroke: #ffffff; stroke-width: 0.48"/>
     <use xlink:href="#mfe3132274a" x="216.932941" y="62.35435" style="stroke: #ffffff; stroke-width: 0.48"/>
     <use xlink:href="#mfe3132274a" x="232.075957" y="60.74419" style="stroke: #ffffff; stroke-width: 0.48"/>
     <use xlink:href="#mfe3132274a" x="193.83605" y="93.281362" style="stroke: #ffffff; stroke-width: 0.48"/>
     <use xlink:href="#mfe3132274a" x="160.070863" y="116.240234" style="stroke: #ffffff; stroke-width: 0.48"/>
     <use xlink:href="#mfe3132274a" x="233.232588" y="134.975083" style="stroke: #ffffff; stroke-width: 0.48"/>
     <use xlink:href="#mfe3132274a" x="249.054545" y="126.754356" style="stroke: #ffffff; stroke-width: 0.48"/>
     <use xlink:href="#mfe3132274a" x="84.856524" y="171.448994" style="stroke: #ffffff; stroke-width: 0.48"/>
     <use xlink:href="#mfe3132274a" x="111.888084" y="163.917174" style="stroke: #ffffff; stroke-width: 0.48"/>
    </g>
   </g>
   <g id="PolyCollection_1">
    <path d="M 46.145455 193.263158 
L 46.145455 246.24 
L 48.195041 244.417757 
L 50.244628 242.536662 
L 52.294215 240.654391 
L 54.343802 238.772121 
L 56.393388 237.015953 
L 58.442975 235.365148 
L 60.492562 233.630502 
L 62.542149 231.773609 
L 64.591736 229.886651 
L 66.641322 228.049139 
L 68.690909 226.20235 
L 70.740496 224.478219 
L 72.790083 222.79663 
L 74.839669 221.115042 
L 76.889256 219.433453 
L 78.938843 217.751865 
L 80.98843 216.073909 
L 83.038017 214.333262 
L 85.087603 212.616424 
L 87.13719 210.906788 
L 89.186777 209.202105 
L 91.236364 207.465907 
L 93.28595 205.906182 
L 95.335537 204.41067 
L 97.385124 202.706704 
L 99.434711 201.562077 
L 101.484298 199.929477 
L 103.533884 197.754976 
L 105.583471 196.262227 
L 107.633058 194.635089 
L 109.682645 193.270557 
L 111.732231 191.908089 
L 113.781818 190.28913 
L 115.831405 189.009468 
L 117.880992 187.780497 
L 119.930579 186.177389 
L 121.980165 185.098554 
L 124.029752 183.681643 
L 126.079339 182.503307 
L 128.128926 181.09375 
L 130.178512 179.848008 
L 132.228099 178.44043 
L 134.277686 177.231585 
L 136.327273 176.02274 
L 138.37686 174.813895 
L 140.426446 173.658184 
L 142.476033 172.429631 
L 144.52562 171.192464 
L 146.575207 170.179285 
L 148.624793 169.085772 
L 150.67438 167.971428 
L 152.723967 166.749206 
L 154.773554 165.707431 
L 156.82314 164.628801 
L 158.872727 163.724976 
L 160.922314 162.450294 
L 162.971901 161.622234 
L 165.021488 160.541849 
L 167.071074 159.422579 
L 169.120661 158.573629 
L 171.170248 157.682269 
L 173.219835 156.615619 
L 175.269421 155.510908 
L 177.319008 154.657402 
L 179.368595 153.650119 
L 181.418182 152.516157 
L 183.467769 151.375613 
L 185.517355 150.627304 
L 187.566942 149.62654 
L 189.616529 148.625775 
L 191.666116 147.642041 
L 193.715702 146.746163 
L 195.765289 145.946289 
L 197.814876 145.145168 
L 199.864463 144.336315 
L 201.91405 143.527462 
L 203.963636 142.718609 
L 206.013223 141.756588 
L 208.06281 140.865724 
L 210.112397 139.973254 
L 212.161983 138.923464 
L 214.21157 138.002211 
L 216.261157 136.929729 
L 218.310744 135.821934 
L 220.360331 134.830069 
L 222.409917 134.005962 
L 224.459504 133.100564 
L 226.509091 132.194242 
L 228.558678 131.283311 
L 230.608264 130.286151 
L 232.657851 129.255098 
L 234.707438 128.224046 
L 236.757025 127.192993 
L 238.806612 126.195997 
L 240.856198 125.382164 
L 242.905785 124.568332 
L 244.955372 123.754499 
L 247.004959 122.940666 
L 249.054545 122.126833 
L 249.054545 44.64 
L 249.054545 44.64 
L 247.004959 46.361213 
L 244.955372 48.082426 
L 242.905785 49.852241 
L 240.856198 51.516517 
L 238.806612 53.412109 
L 236.757025 55.21492 
L 234.707438 56.952078 
L 232.657851 58.688452 
L 230.608264 60.762993 
L 228.558678 62.527593 
L 226.509091 64.493623 
L 224.459504 66.1757 
L 222.409917 67.857776 
L 220.360331 69.552269 
L 218.310744 71.306572 
L 216.261157 73.060875 
L 214.21157 74.815179 
L 212.161983 76.569482 
L 210.112397 78.323786 
L 208.06281 80.078774 
L 206.013223 81.842855 
L 203.963636 83.785813 
L 201.91405 85.82731 
L 199.864463 87.57573 
L 197.814876 89.532617 
L 195.765289 91.41561 
L 193.715702 92.970594 
L 191.666116 94.884256 
L 189.616529 96.812598 
L 187.566942 98.647046 
L 185.517355 100.577084 
L 183.467769 102.365638 
L 181.418182 104.195709 
L 179.368595 106.061563 
L 177.319008 108.001098 
L 175.269421 109.898114 
L 173.219835 111.963197 
L 171.170248 113.862532 
L 169.120661 115.550502 
L 167.071074 117.238471 
L 165.021488 118.926441 
L 162.971901 120.614411 
L 160.922314 122.132827 
L 158.872727 123.776026 
L 156.82314 125.271294 
L 154.773554 126.855068 
L 152.723967 128.327522 
L 150.67438 129.932276 
L 148.624793 131.618468 
L 146.575207 133.163377 
L 144.52562 134.643924 
L 142.476033 136.225287 
L 140.426446 137.638656 
L 138.37686 138.898718 
L 136.327273 140.317426 
L 134.277686 141.881209 
L 132.228099 143.152803 
L 130.178512 144.568441 
L 128.128926 146.028672 
L 126.079339 147.537627 
L 124.029752 149.010643 
L 121.980165 150.365905 
L 119.930579 151.850323 
L 117.880992 153.270163 
L 115.831405 154.608321 
L 113.781818 155.823353 
L 111.732231 157.326295 
L 109.682645 158.596033 
L 107.633058 159.927782 
L 105.583471 161.28975 
L 103.533884 162.663388 
L 101.484298 163.852298 
L 99.434711 165.21273 
L 97.385124 166.364727 
L 95.335537 167.4396 
L 93.28595 168.698808 
L 91.236364 170.026117 
L 89.186777 171.042982 
L 87.13719 172.273424 
L 85.087603 173.515639 
L 83.038017 174.504799 
L 80.98843 175.697145 
L 78.938843 176.891112 
L 76.889256 178.018807 
L 74.839669 178.997206 
L 72.790083 179.975606 
L 70.740496 180.954005 
L 68.690909 181.90056 
L 66.641322 182.82781 
L 64.591736 183.844645 
L 62.542149 184.857764 
L 60.492562 185.835814 
L 58.442975 186.873252 
L 56.393388 187.972617 
L 54.343802 189.077391 
L 52.294215 190.179296 
L 50.244628 191.274218 
L 48.195041 192.240506 
L 46.145455 193.263158 
z
" clip-path="url(#pf2ce9fba21)" style="fill: #808080; fill-opacity: 0.15"/>
   </g>
   <g id="PathCollection_2">
    <defs>
     <path id="m76ce5c2aa9" d="M 0 3.535534 
L 0 -3.535534 
" style="stroke: #808080"/>
    </defs>
    <g clip-path="url(#pf2ce9fba21)">
     <use xlink:href="#m76ce5c2aa9" x="83.257113" y="211.434067" style="fill: #808080; stroke: #808080"/>
    </g>
   </g>
   <g id="PathCollection_3">
    <g clip-path="url(#pf2ce9fba21)">
     <use xlink:href="#m76ce5c2aa9" x="94.420882" y="205.251396" style="fill: #808080; stroke: #808080"/>
    </g>
   </g>
   <g id="PathCollection_4">
    <g clip-path="url(#pf2ce9fba21)">
     <use xlink:href="#m76ce5c2aa9" x="224.504449" y="61.54927" style="fill: #808080; stroke: #808080"/>
    </g>
   </g>
   <g id="PathCollection_5">
    <g clip-path="url(#pf2ce9fba21)">
     <use xlink:href="#m76ce5c2aa9" x="176.953457" y="104.760798" style="fill: #808080; stroke: #808080"/>
    </g>
   </g>
   <g id="PathCollection_6">
    <g clip-path="url(#pf2ce9fba21)">
     <use xlink:href="#m76ce5c2aa9" x="241.143567" y="130.864719" style="fill: #808080; stroke: #808080"/>
    </g>
   </g>
   <g id="PathCollection_7">
    <g clip-path="url(#pf2ce9fba21)">
     <use xlink:href="#m76ce5c2aa9" x="98.372304" y="167.683084" style="fill: #808080; stroke: #808080"/>
    </g>
   </g>
   <g id="matplotlib.axis_1">
    <g id="xtick_1">
     <g id="line2d_1">
      <defs>
       <path id="me5c965478a" d="M 0 0 
L 0 6 
" style="stroke: #d3d3d3; stroke-width: 2"/>
      </defs>
      <g>
       <use xlink:href="#me5c965478a" x="108.224328" y="256.32" style="fill: #d3d3d3; stroke: #d3d3d3; stroke-width: 2"/>
      </g>
     </g>
     <g id="text_1">
      <text style="font: 14px 'Arial'; text-anchor: middle" x="108.224328" y="275.840937" transform="rotate(-0 108.224328 275.840937)">0.6</text>
     </g>
    </g>
    <g id="xtick_2">
     <g id="line2d_2">
      <g>
       <use xlink:href="#me5c965478a" x="191.54579" y="256.32" style="fill: #d3d3d3; stroke: #d3d3d3; stroke-width: 2"/>
      </g>
     </g>
     <g id="text_2">
      <text style="font: 14px 'Arial'; text-anchor: middle" x="191.54579" y="275.840937" transform="rotate(-0 191.54579 275.840937)">0.8</text>
     </g>
    </g>
    <g id="text_3">
     <text style="font: 18px 'Arial'; text-anchor: middle" x="147.6" y="295.560938" transform="rotate(-0 147.6 295.560938)">l1_density</text>
    </g>
   </g>
   <g id="matplotlib.axis_2">
    <g id="ytick_1">
     <g id="line2d_3">
      <defs>
       <path id="mf3f311e958" d="M 0 0 
L -6 0 
" style="stroke: #d3d3d3; stroke-width: 2"/>
      </defs>
      <g>
       <use xlink:href="#mf3f311e958" x="36" y="234.923627" style="fill: #d3d3d3; stroke: #d3d3d3; stroke-width: 2"/>
      </g>
     </g>
     <g id="text_4">
      <text style="font: 14px 'Arial'; text-anchor: end" x="26.5" y="239.934096" transform="rotate(-0 26.5 239.934096)">0.4</text>
     </g>
    </g>
    <g id="ytick_2">
     <g id="line2d_4">
      <g>
       <use xlink:href="#mf3f311e958" x="36" y="175.287567" style="fill: #d3d3d3; stroke: #d3d3d3; stroke-width: 2"/>
      </g>
     </g>
     <g id="text_5">
      <text style="font: 14px 'Arial'; text-anchor: end" x="26.5" y="180.298035" transform="rotate(-0 26.5 180.298035)">0.6</text>
     </g>
    </g>
    <g id="ytick_3">
     <g id="line2d_5">
      <g>
       <use xlink:href="#mf3f311e958" x="36" y="115.651506" style="fill: #d3d3d3; stroke: #d3d3d3; stroke-width: 2"/>
      </g>
     </g>
     <g id="text_6">
      <text style="font: 14px 'Arial'; text-anchor: end" x="26.5" y="120.661975" transform="rotate(-0 26.5 120.661975)">0.8</text>
     </g>
    </g>
    <g id="ytick_4">
     <g id="line2d_6">
      <g>
       <use xlink:href="#mf3f311e958" x="36" y="56.015446" style="fill: #d3d3d3; stroke: #d3d3d3; stroke-width: 2"/>
      </g>
     </g>
     <g id="text_7">
      <text style="font: 14px 'Arial'; text-anchor: end" x="26.5" y="61.025914" transform="rotate(-0 26.5 61.025914)">1.0</text>
     </g>
    </g>
    <g id="text_8">
     <text style="font: 18px 'Arial'; text-anchor: middle" x="-0.748438" y="145.44" transform="rotate(-90 -0.748438 145.44)">l3_density</text>
    </g>
   </g>
   <g id="line2d_7">
    <path d="M 46.145455 214.531978 
L 48.195041 213.236498 
L 50.244628 211.941018 
L 52.294215 210.645538 
L 54.343802 209.350058 
L 56.393388 208.054578 
L 58.442975 206.759098 
L 60.492562 205.463619 
L 62.542149 204.168139 
L 64.591736 202.872659 
L 66.641322 201.577179 
L 68.690909 200.281699 
L 70.740496 198.986219 
L 72.790083 197.690739 
L 74.839669 196.395259 
L 76.889256 195.099779 
L 78.938843 193.804299 
L 80.98843 192.508819 
L 83.038017 191.213339 
L 85.087603 189.917859 
L 87.13719 188.622379 
L 89.186777 187.3269 
L 91.236364 186.03142 
L 93.28595 184.73594 
L 95.335537 183.44046 
L 97.385124 182.14498 
L 99.434711 180.8495 
L 101.484298 179.55402 
L 103.533884 178.25854 
L 105.583471 176.96306 
L 107.633058 175.66758 
L 109.682645 174.3721 
L 111.732231 173.07662 
L 113.781818 171.78114 
L 115.831405 170.48566 
L 117.880992 169.190181 
L 119.930579 167.894701 
L 121.980165 166.599221 
L 124.029752 165.303741 
L 126.079339 164.008261 
L 128.128926 162.712781 
L 130.178512 161.417301 
L 132.228099 160.121821 
L 134.277686 158.826341 
L 136.327273 157.530861 
L 138.37686 156.235381 
L 140.426446 154.939901 
L 142.476033 153.644421 
L 144.52562 152.348941 
L 146.575207 151.053462 
L 148.624793 149.757982 
L 150.67438 148.462502 
L 152.723967 147.167022 
L 154.773554 145.871542 
L 156.82314 144.576062 
L 158.872727 143.280582 
L 160.922314 141.985102 
L 162.971901 140.689622 
L 165.021488 139.394142 
L 167.071074 138.098662 
L 169.120661 136.803182 
L 171.170248 135.507702 
L 173.219835 134.212222 
L 175.269421 132.916743 
L 177.319008 131.621263 
L 179.368595 130.325783 
L 181.418182 129.030303 
L 183.467769 127.734823 
L 185.517355 126.439343 
L 187.566942 125.143863 
L 189.616529 123.848383 
L 191.666116 122.552903 
L 193.715702 121.257423 
L 195.765289 119.961943 
L 197.814876 118.666463 
L 199.864463 117.370983 
L 201.91405 116.075503 
L 203.963636 114.780024 
L 206.013223 113.484544 
L 208.06281 112.189064 
L 210.112397 110.893584 
L 212.161983 109.598104 
L 214.21157 108.302624 
L 216.261157 107.007144 
L 218.310744 105.711664 
L 220.360331 104.416184 
L 222.409917 103.120704 
L 224.459504 101.825224 
L 226.509091 100.529744 
L 228.558678 99.234264 
L 230.608264 97.938784 
L 232.657851 96.643305 
L 234.707438 95.347825 
L 236.757025 94.052345 
L 238.806612 92.756865 
L 240.856198 91.461385 
L 242.905785 90.165905 
L 244.955372 88.870425 
L 247.004959 87.574945 
L 249.054545 86.279465 
" clip-path="url(#pf2ce9fba21)" style="fill: none; stroke: #808080; stroke-width: 3; stroke-linecap: square"/>
   </g>
   <g id="line2d_8">
    <path d="M 60.367151 211.355417 
L 106.147075 211.512718 
" clip-path="url(#pf2ce9fba21)" style="fill: none; stroke: #808080; stroke-linecap: square"/>
   </g>
   <g id="line2d_9">
    <path d="M 142.696309 206.314332 
L 46.145455 204.188461 
" clip-path="url(#pf2ce9fba21)" style="fill: none; stroke: #808080; stroke-linecap: square"/>
   </g>
   <g id="line2d_10">
    <path d="M 216.932941 62.35435 
L 232.075957 60.74419 
" clip-path="url(#pf2ce9fba21)" style="fill: none; stroke: #808080; stroke-linecap: square"/>
   </g>
   <g id="line2d_11">
    <path d="M 193.83605 93.281362 
L 160.070863 116.240234 
" clip-path="url(#pf2ce9fba21)" style="fill: none; stroke: #808080; stroke-linecap: square"/>
   </g>
   <g id="line2d_12">
    <path d="M 233.232588 134.975083 
L 249.054545 126.754356 
" clip-path="url(#pf2ce9fba21)" style="fill: none; stroke: #808080; stroke-linecap: square"/>
   </g>
   <g id="line2d_13">
    <path d="M 84.856524 171.448994 
L 111.888084 163.917174 
" clip-path="url(#pf2ce9fba21)" style="fill: none; stroke: #808080; stroke-linecap: square"/>
   </g>
   <g id="patch_3">
    <path d="M 36 256.32 
L 36 34.56 
" style="fill: none; stroke: #d3d3d3; stroke-width: 2; stroke-linejoin: miter; stroke-linecap: square"/>
   </g>
   <g id="patch_4">
    <path d="M 36 256.32 
L 259.2 256.32 
" style="fill: none; stroke: #d3d3d3; stroke-width: 2; stroke-linejoin: miter; stroke-linecap: square"/>
   </g>
   <g id="text_9">
    <text style="font: 14px 'Arial'; text-anchor: start" x="83.257113" y="211.434067" transform="rotate(-0 83.257113 211.434067)">A02m</text>
   </g>
   <g id="text_10">
    <text style="font: 14px 'Arial'; text-anchor: start" x="94.420882" y="205.251396" transform="rotate(-0 94.420882 205.251396)">A02n</text>
   </g>
   <g id="text_11">
    <text style="font: 14px 'Arial'; text-anchor: start" x="224.504449" y="61.54927" transform="rotate(-0 224.504449 61.54927)">A09a</text>
   </g>
   <g id="text_12">
    <text style="font: 14px 'Arial'; text-anchor: start" x="176.953457" y="104.760798" transform="rotate(-0 176.953457 104.760798)">A09c</text>
   </g>
   <g id="text_13">
    <text style="font: 14px 'Arial'; text-anchor: start" x="241.143567" y="130.864719" transform="rotate(-0 241.143567 130.864719)">A09l</text>
   </g>
   <g id="text_14">
    <text style="font: 14px 'Arial'; text-anchor: start" x="98.372304" y="167.683084" transform="rotate(-0 98.372304 167.683084)">A10a</text>
   </g>
   <g id="text_15">
    <text style="font: 14px 'Arial'; text-anchor: middle" x="147.6" y="28.56" transform="rotate(-0 147.6 28.56)">r = 0.80, p = 0.0017</text>
   </g>
  </g>
 </g>
 <defs>
  <clipPath id="pf2ce9fba21">
   <rect x="36" y="34.56" width="223.2" height="221.76"/>
  </clipPath>
 </defs>
</svg>
