<?xml version="1.0" encoding="utf-8" standalone="no"?>
<!DOCTYPE svg PUBLIC "-//W3C//DTD SVG 1.1//EN"
  "http://www.w3.org/Graphics/SVG/1.1/DTD/svg11.dtd">
<svg xmlns:xlink="http://www.w3.org/1999/xlink" width="576pt" height="288pt" viewBox="0 0 576 288" xmlns="http://www.w3.org/2000/svg" version="1.1">
 <metadata>
  <rdf:RDF xmlns:dc="http://purl.org/dc/elements/1.1/" xmlns:cc="http://creativecommons.org/ns#" xmlns:rdf="http://www.w3.org/1999/02/22-rdf-syntax-ns#">
   <cc:Work>
    <dc:type rdf:resource="http://purl.org/dc/dcmitype/StillImage"/>
    <dc:date>2025-07-02T14:20:53.403666</dc:date>
    <dc:format>image/svg+xml</dc:format>
    <dc:creator>
     <cc:Agent>
      <dc:title>Matplotlib v3.9.2, https://matplotlib.org/</dc:title>
     </cc:Agent>
    </dc:creator>
   </cc:Work>
  </rdf:RDF>
 </metadata>
 <defs>
  <style type="text/css">*{stroke-linejoin: round; stroke-linecap: butt}</style>
 </defs>
 <g id="figure_1">
  <g id="patch_1">
   <path d="M 0 288 
L 576 288 
L 576 0 
L 0 0 
z
" style="fill: #ffffff"/>
  </g>
  <g id="axes_1">
   <g id="patch_2">
    <path d="M 72 256.32 
L 518.4 256.32 
L 518.4 34.56 
L 72 34.56 
z
" style="fill: #ffffff"/>
   </g>
   <g id="patch_3">
    <path d="M 168.695579 256.32 
L 179.025045 256.32 
L 179.025045 249.28 
L 168.695579 249.28 
z
" clip-path="url(#p6831cbeb9a)" style="fill: #97c7dd"/>
   </g>
   <g id="patch_4">
    <path d="M 179.025045 256.32 
L 189.354511 256.32 
L 189.354511 256.32 
L 179.025045 256.32 
z
" clip-path="url(#p6831cbeb9a)" style="fill: #97c7dd"/>
   </g>
   <g id="patch_5">
    <path d="M 189.354511 256.32 
L 199.683977 256.32 
L 199.683977 249.28 
L 189.354511 249.28 
z
" clip-path="url(#p6831cbeb9a)" style="fill: #97c7dd"/>
   </g>
   <g id="patch_6">
    <path d="M 199.683977 256.32 
L 210.013444 256.32 
L 210.013444 256.32 
L 199.683977 256.32 
z
" clip-path="url(#p6831cbeb9a)" style="fill: #97c7dd"/>
   </g>
   <g id="patch_7">
    <path d="M 210.013444 256.32 
L 220.34291 256.32 
L 220.34291 235.2 
L 210.013444 235.2 
z
" clip-path="url(#p6831cbeb9a)" style="fill: #97c7dd"/>
   </g>
   <g id="patch_8">
    <path d="M 220.34291 256.32 
L 230.672376 256.32 
L 230.672376 235.2 
L 220.34291 235.2 
z
" clip-path="url(#p6831cbeb9a)" style="fill: #97c7dd"/>
   </g>
   <g id="patch_9">
    <path d="M 230.672376 256.32 
L 241.001842 256.32 
L 241.001842 228.16 
L 230.672376 228.16 
z
" clip-path="url(#p6831cbeb9a)" style="fill: #97c7dd"/>
   </g>
   <g id="patch_10">
    <path d="M 241.001842 256.32 
L 251.331308 256.32 
L 251.331308 221.12 
L 241.001842 221.12 
z
" clip-path="url(#p6831cbeb9a)" style="fill: #97c7dd"/>
   </g>
   <g id="patch_11">
    <path d="M 251.331308 256.32 
L 261.660775 256.32 
L 261.660775 200 
L 251.331308 200 
z
" clip-path="url(#p6831cbeb9a)" style="fill: #97c7dd"/>
   </g>
   <g id="patch_12">
    <path d="M 261.660775 256.32 
L 271.990241 256.32 
L 271.990241 185.92 
L 261.660775 185.92 
z
" clip-path="url(#p6831cbeb9a)" style="fill: #97c7dd"/>
   </g>
   <g id="patch_13">
    <path d="M 271.990241 256.32 
L 282.319707 256.32 
L 282.319707 192.96 
L 271.990241 192.96 
z
" clip-path="url(#p6831cbeb9a)" style="fill: #97c7dd"/>
   </g>
   <g id="patch_14">
    <path d="M 282.319707 256.32 
L 292.649173 256.32 
L 292.649173 171.84 
L 282.319707 171.84 
z
" clip-path="url(#p6831cbeb9a)" style="fill: #97c7dd"/>
   </g>
   <g id="patch_15">
    <path d="M 292.649173 256.32 
L 302.97864 256.32 
L 302.97864 171.84 
L 292.649173 171.84 
z
" clip-path="url(#p6831cbeb9a)" style="fill: #97c7dd"/>
   </g>
   <g id="patch_16">
    <path d="M 302.97864 256.32 
L 313.308106 256.32 
L 313.308106 122.56 
L 302.97864 122.56 
z
" clip-path="url(#p6831cbeb9a)" style="fill: #97c7dd"/>
   </g>
   <g id="patch_17">
    <path d="M 313.308106 256.32 
L 323.637572 256.32 
L 323.637572 129.6 
L 313.308106 129.6 
z
" clip-path="url(#p6831cbeb9a)" style="fill: #97c7dd"/>
   </g>
   <g id="patch_18">
    <path d="M 323.637572 256.32 
L 333.967038 256.32 
L 333.967038 115.52 
L 323.637572 115.52 
z
" clip-path="url(#p6831cbeb9a)" style="fill: #97c7dd"/>
   </g>
   <g id="patch_19">
    <path d="M 333.967038 256.32 
L 344.296504 256.32 
L 344.296504 136.64 
L 333.967038 136.64 
z
" clip-path="url(#p6831cbeb9a)" style="fill: #97c7dd"/>
   </g>
   <g id="patch_20">
    <path d="M 344.296504 256.32 
L 354.625971 256.32 
L 354.625971 45.12 
L 344.296504 45.12 
z
" clip-path="url(#p6831cbeb9a)" style="fill: #97c7dd"/>
   </g>
   <g id="patch_21">
    <path d="M 354.625971 256.32 
L 364.955437 256.32 
L 364.955437 66.24 
L 354.625971 66.24 
z
" clip-path="url(#p6831cbeb9a)" style="fill: #97c7dd"/>
   </g>
   <g id="patch_22">
    <path d="M 364.955437 256.32 
L 375.284903 256.32 
L 375.284903 59.2 
L 364.955437 59.2 
z
" clip-path="url(#p6831cbeb9a)" style="fill: #97c7dd"/>
   </g>
   <g id="patch_23">
    <path d="M 375.284903 256.32 
L 385.614369 256.32 
L 385.614369 108.48 
L 375.284903 108.48 
z
" clip-path="url(#p6831cbeb9a)" style="fill: #97c7dd"/>
   </g>
   <g id="patch_24">
    <path d="M 385.614369 256.32 
L 395.943836 256.32 
L 395.943836 150.72 
L 385.614369 150.72 
z
" clip-path="url(#p6831cbeb9a)" style="fill: #97c7dd"/>
   </g>
   <g id="patch_25">
    <path d="M 395.943836 256.32 
L 406.273302 256.32 
L 406.273302 143.68 
L 395.943836 143.68 
z
" clip-path="url(#p6831cbeb9a)" style="fill: #97c7dd"/>
   </g>
   <g id="patch_26">
    <path d="M 406.273302 256.32 
L 416.602768 256.32 
L 416.602768 157.76 
L 406.273302 157.76 
z
" clip-path="url(#p6831cbeb9a)" style="fill: #97c7dd"/>
   </g>
   <g id="patch_27">
    <path d="M 416.602768 256.32 
L 426.932234 256.32 
L 426.932234 185.92 
L 416.602768 185.92 
z
" clip-path="url(#p6831cbeb9a)" style="fill: #97c7dd"/>
   </g>
   <g id="patch_28">
    <path d="M 426.932234 256.32 
L 437.261701 256.32 
L 437.261701 214.08 
L 426.932234 214.08 
z
" clip-path="url(#p6831cbeb9a)" style="fill: #97c7dd"/>
   </g>
   <g id="patch_29">
    <path d="M 437.261701 256.32 
L 447.591167 256.32 
L 447.591167 235.2 
L 437.261701 235.2 
z
" clip-path="url(#p6831cbeb9a)" style="fill: #97c7dd"/>
   </g>
   <g id="patch_30">
    <path d="M 447.591167 256.32 
L 457.920633 256.32 
L 457.920633 221.12 
L 447.591167 221.12 
z
" clip-path="url(#p6831cbeb9a)" style="fill: #97c7dd"/>
   </g>
   <g id="patch_31">
    <path d="M 457.920633 256.32 
L 468.250099 256.32 
L 468.250099 249.28 
L 457.920633 249.28 
z
" clip-path="url(#p6831cbeb9a)" style="fill: #97c7dd"/>
   </g>
   <g id="patch_32">
    <path d="M 468.250099 256.32 
L 478.579565 256.32 
L 478.579565 249.28 
L 468.250099 249.28 
z
" clip-path="url(#p6831cbeb9a)" style="fill: #97c7dd"/>
   </g>
   <g id="patch_33">
    <path d="M 94.726975 256.32 
L 106.864357 256.32 
L 106.864357 253.872824 
L 94.726975 253.872824 
z
" clip-path="url(#p6831cbeb9a)" style="fill: #645aa3; opacity: 0.7"/>
   </g>
   <g id="patch_34">
    <path d="M 106.864357 256.32 
L 119.001738 256.32 
L 119.001738 253.872824 
L 106.864357 253.872824 
z
" clip-path="url(#p6831cbeb9a)" style="fill: #645aa3; opacity: 0.7"/>
   </g>
   <g id="patch_35">
    <path d="M 119.001738 256.32 
L 131.13912 256.32 
L 131.13912 255.096412 
L 119.001738 255.096412 
z
" clip-path="url(#p6831cbeb9a)" style="fill: #645aa3; opacity: 0.7"/>
   </g>
   <g id="patch_36">
    <path d="M 131.13912 256.32 
L 143.276501 256.32 
L 143.276501 255.096412 
L 131.13912 255.096412 
z
" clip-path="url(#p6831cbeb9a)" style="fill: #645aa3; opacity: 0.7"/>
   </g>
   <g id="patch_37">
    <path d="M 143.276501 256.32 
L 155.413883 256.32 
L 155.413883 251.425648 
L 143.276501 251.425648 
z
" clip-path="url(#p6831cbeb9a)" style="fill: #645aa3; opacity: 0.7"/>
   </g>
   <g id="patch_38">
    <path d="M 155.413883 256.32 
L 167.551265 256.32 
L 167.551265 248.978472 
L 155.413883 248.978472 
z
" clip-path="url(#p6831cbeb9a)" style="fill: #645aa3; opacity: 0.7"/>
   </g>
   <g id="patch_39">
    <path d="M 167.551265 256.32 
L 179.688646 256.32 
L 179.688646 252.649236 
L 167.551265 252.649236 
z
" clip-path="url(#p6831cbeb9a)" style="fill: #645aa3; opacity: 0.7"/>
   </g>
   <g id="patch_40">
    <path d="M 179.688646 256.32 
L 191.826028 256.32 
L 191.826028 251.425648 
L 179.688646 251.425648 
z
" clip-path="url(#p6831cbeb9a)" style="fill: #645aa3; opacity: 0.7"/>
   </g>
   <g id="patch_41">
    <path d="M 191.826028 256.32 
L 203.963409 256.32 
L 203.963409 244.084121 
L 191.826028 244.084121 
z
" clip-path="url(#p6831cbeb9a)" style="fill: #645aa3; opacity: 0.7"/>
   </g>
   <g id="patch_42">
    <path d="M 203.963409 256.32 
L 216.100791 256.32 
L 216.100791 236.742593 
L 203.963409 236.742593 
z
" clip-path="url(#p6831cbeb9a)" style="fill: #645aa3; opacity: 0.7"/>
   </g>
   <g id="patch_43">
    <path d="M 216.100791 256.32 
L 228.238172 256.32 
L 228.238172 230.624653 
L 216.100791 230.624653 
z
" clip-path="url(#p6831cbeb9a)" style="fill: #645aa3; opacity: 0.7"/>
   </g>
   <g id="patch_44">
    <path d="M 228.238172 256.32 
L 240.375554 256.32 
L 240.375554 230.624653 
L 228.238172 230.624653 
z
" clip-path="url(#p6831cbeb9a)" style="fill: #645aa3; opacity: 0.7"/>
   </g>
   <g id="patch_45">
    <path d="M 240.375554 256.32 
L 252.512936 256.32 
L 252.512936 202.482131 
L 240.375554 202.482131 
z
" clip-path="url(#p6831cbeb9a)" style="fill: #645aa3; opacity: 0.7"/>
   </g>
   <g id="patch_46">
    <path d="M 252.512936 256.32 
L 264.650317 256.32 
L 264.650317 198.811367 
L 252.512936 198.811367 
z
" clip-path="url(#p6831cbeb9a)" style="fill: #645aa3; opacity: 0.7"/>
   </g>
   <g id="patch_47">
    <path d="M 264.650317 256.32 
L 276.787699 256.32 
L 276.787699 186.575487 
L 264.650317 186.575487 
z
" clip-path="url(#p6831cbeb9a)" style="fill: #645aa3; opacity: 0.7"/>
   </g>
   <g id="patch_48">
    <path d="M 276.787699 256.32 
L 288.92508 256.32 
L 288.92508 166.99808 
L 276.787699 166.99808 
z
" clip-path="url(#p6831cbeb9a)" style="fill: #645aa3; opacity: 0.7"/>
   </g>
   <g id="patch_49">
    <path d="M 288.92508 256.32 
L 301.062462 256.32 
L 301.062462 130.290442 
L 288.92508 130.290442 
z
" clip-path="url(#p6831cbeb9a)" style="fill: #645aa3; opacity: 0.7"/>
   </g>
   <g id="patch_50">
    <path d="M 301.062462 256.32 
L 313.199843 256.32 
L 313.199843 93.582804 
L 301.062462 93.582804 
z
" clip-path="url(#p6831cbeb9a)" style="fill: #645aa3; opacity: 0.7"/>
   </g>
   <g id="patch_51">
    <path d="M 313.199843 256.32 
L 325.337225 256.32 
L 325.337225 94.806392 
L 313.199843 94.806392 
z
" clip-path="url(#p6831cbeb9a)" style="fill: #645aa3; opacity: 0.7"/>
   </g>
   <g id="patch_52">
    <path d="M 325.337225 256.32 
L 337.474607 256.32 
L 337.474607 69.111045 
L 325.337225 69.111045 
z
" clip-path="url(#p6831cbeb9a)" style="fill: #645aa3; opacity: 0.7"/>
   </g>
   <g id="patch_53">
    <path d="M 337.474607 256.32 
L 349.611988 256.32 
L 349.611988 66.663869 
L 337.474607 66.663869 
z
" clip-path="url(#p6831cbeb9a)" style="fill: #645aa3; opacity: 0.7"/>
   </g>
   <g id="patch_54">
    <path d="M 349.611988 256.32 
L 361.74937 256.32 
L 361.74937 69.111045 
L 349.611988 69.111045 
z
" clip-path="url(#p6831cbeb9a)" style="fill: #645aa3; opacity: 0.7"/>
   </g>
   <g id="patch_55">
    <path d="M 361.74937 256.32 
L 373.886751 256.32 
L 373.886751 81.346925 
L 361.74937 81.346925 
z
" clip-path="url(#p6831cbeb9a)" style="fill: #645aa3; opacity: 0.7"/>
   </g>
   <g id="patch_56">
    <path d="M 373.886751 256.32 
L 386.024133 256.32 
L 386.024133 119.278151 
L 373.886751 119.278151 
z
" clip-path="url(#p6831cbeb9a)" style="fill: #645aa3; opacity: 0.7"/>
   </g>
   <g id="patch_57">
    <path d="M 386.024133 256.32 
L 398.161514 256.32 
L 398.161514 171.892432 
L 386.024133 171.892432 
z
" clip-path="url(#p6831cbeb9a)" style="fill: #645aa3; opacity: 0.7"/>
   </g>
   <g id="patch_58">
    <path d="M 398.161514 256.32 
L 410.298896 256.32 
L 410.298896 193.917015 
L 398.161514 193.917015 
z
" clip-path="url(#p6831cbeb9a)" style="fill: #645aa3; opacity: 0.7"/>
   </g>
   <g id="patch_59">
    <path d="M 410.298896 256.32 
L 422.436278 256.32 
L 422.436278 215.941598 
L 410.298896 215.941598 
z
" clip-path="url(#p6831cbeb9a)" style="fill: #645aa3; opacity: 0.7"/>
   </g>
   <g id="patch_60">
    <path d="M 422.436278 256.32 
L 434.573659 256.32 
L 434.573659 245.307709 
L 422.436278 245.307709 
z
" clip-path="url(#p6831cbeb9a)" style="fill: #645aa3; opacity: 0.7"/>
   </g>
   <g id="patch_61">
    <path d="M 434.573659 256.32 
L 446.711041 256.32 
L 446.711041 252.649236 
L 434.573659 252.649236 
z
" clip-path="url(#p6831cbeb9a)" style="fill: #645aa3; opacity: 0.7"/>
   </g>
   <g id="patch_62">
    <path d="M 446.711041 256.32 
L 458.848422 256.32 
L 458.848422 255.096412 
L 446.711041 255.096412 
z
" clip-path="url(#p6831cbeb9a)" style="fill: #645aa3; opacity: 0.7"/>
   </g>
   <g id="matplotlib.axis_1">
    <g id="xtick_1">
     <g id="line2d_1">
      <defs>
       <path id="ma9df87915f" d="M 0 0 
L 0 6 
" style="stroke: #d3d3d3; stroke-width: 2"/>
      </defs>
      <g>
       <use xlink:href="#ma9df87915f" x="72" y="256.32" style="fill: #d3d3d3; stroke: #d3d3d3; stroke-width: 2"/>
      </g>
     </g>
     <g id="text_1">
      <text style="font: 14px 'Arial'; text-anchor: middle" x="72" y="275.840937" transform="rotate(-0 72 275.840937)">3.0</text>
     </g>
    </g>
    <g id="xtick_2">
     <g id="line2d_2">
      <g>
       <use xlink:href="#ma9df87915f" x="161.28" y="256.32" style="fill: #d3d3d3; stroke: #d3d3d3; stroke-width: 2"/>
      </g>
     </g>
     <g id="text_2">
      <text style="font: 14px 'Arial'; text-anchor: middle" x="161.28" y="275.840937" transform="rotate(-0 161.28 275.840937)">3.5</text>
     </g>
    </g>
    <g id="xtick_3">
     <g id="line2d_3">
      <g>
       <use xlink:href="#ma9df87915f" x="250.56" y="256.32" style="fill: #d3d3d3; stroke: #d3d3d3; stroke-width: 2"/>
      </g>
     </g>
     <g id="text_3">
      <text style="font: 14px 'Arial'; text-anchor: middle" x="250.56" y="275.840937" transform="rotate(-0 250.56 275.840937)">4.0</text>
     </g>
    </g>
    <g id="xtick_4">
     <g id="line2d_4">
      <g>
       <use xlink:href="#ma9df87915f" x="339.84" y="256.32" style="fill: #d3d3d3; stroke: #d3d3d3; stroke-width: 2"/>
      </g>
     </g>
     <g id="text_4">
      <text style="font: 14px 'Arial'; text-anchor: middle" x="339.84" y="275.840937" transform="rotate(-0 339.84 275.840937)">4.5</text>
     </g>
    </g>
    <g id="xtick_5">
     <g id="line2d_5">
      <g>
       <use xlink:href="#ma9df87915f" x="429.12" y="256.32" style="fill: #d3d3d3; stroke: #d3d3d3; stroke-width: 2"/>
      </g>
     </g>
     <g id="text_5">
      <text style="font: 14px 'Arial'; text-anchor: middle" x="429.12" y="275.840937" transform="rotate(-0 429.12 275.840937)">5.0</text>
     </g>
    </g>
    <g id="xtick_6">
     <g id="line2d_6">
      <g>
       <use xlink:href="#ma9df87915f" x="518.4" y="256.32" style="fill: #d3d3d3; stroke: #d3d3d3; stroke-width: 2"/>
      </g>
     </g>
     <g id="text_6">
      <text style="font: 14px 'Arial'; text-anchor: middle" x="518.4" y="275.840937" transform="rotate(-0 518.4 275.840937)">5.5</text>
     </g>
    </g>
    <g id="text_7">
     <text style="font: 18px 'Arial'; text-anchor: middle" x="295.2" y="295.726875" transform="rotate(-0 295.2 295.726875)">PSD area (nm^2)</text>
    </g>
   </g>
   <g id="matplotlib.axis_2">
    <g id="ytick_1">
     <g id="line2d_7">
      <defs>
       <path id="m3ce51954bf" d="M 0 0 
L -6 0 
" style="stroke: #d3d3d3; stroke-width: 2"/>
      </defs>
      <g>
       <use xlink:href="#m3ce51954bf" x="72" y="256.32" style="fill: #d3d3d3; stroke: #d3d3d3; stroke-width: 2"/>
      </g>
     </g>
     <g id="text_8">
      <text style="font: 14px 'Arial'; text-anchor: end" x="62.5" y="261.330469" transform="rotate(-0 62.5 261.330469)">0.00</text>
     </g>
    </g>
    <g id="ytick_2">
     <g id="line2d_8">
      <g>
       <use xlink:href="#m3ce51954bf" x="72" y="223.841418" style="fill: #d3d3d3; stroke: #d3d3d3; stroke-width: 2"/>
      </g>
     </g>
     <g id="text_9">
      <text style="font: 14px 'Arial'; text-anchor: end" x="62.5" y="228.851887" transform="rotate(-0 62.5 228.851887)">0.25</text>
     </g>
    </g>
    <g id="ytick_3">
     <g id="line2d_9">
      <g>
       <use xlink:href="#m3ce51954bf" x="72" y="191.362837" style="fill: #d3d3d3; stroke: #d3d3d3; stroke-width: 2"/>
      </g>
     </g>
     <g id="text_10">
      <text style="font: 14px 'Arial'; text-anchor: end" x="62.5" y="196.373306" transform="rotate(-0 62.5 196.373306)">0.50</text>
     </g>
    </g>
    <g id="ytick_4">
     <g id="line2d_10">
      <g>
       <use xlink:href="#m3ce51954bf" x="72" y="158.884255" style="fill: #d3d3d3; stroke: #d3d3d3; stroke-width: 2"/>
      </g>
     </g>
     <g id="text_11">
      <text style="font: 14px 'Arial'; text-anchor: end" x="62.5" y="163.894724" transform="rotate(-0 62.5 163.894724)">0.75</text>
     </g>
    </g>
    <g id="ytick_5">
     <g id="line2d_11">
      <g>
       <use xlink:href="#m3ce51954bf" x="72" y="126.405674" style="fill: #d3d3d3; stroke: #d3d3d3; stroke-width: 2"/>
      </g>
     </g>
     <g id="text_12">
      <text style="font: 14px 'Arial'; text-anchor: end" x="62.5" y="131.416143" transform="rotate(-0 62.5 131.416143)">1.00</text>
     </g>
    </g>
    <g id="ytick_6">
     <g id="line2d_12">
      <g>
       <use xlink:href="#m3ce51954bf" x="72" y="93.927092" style="fill: #d3d3d3; stroke: #d3d3d3; stroke-width: 2"/>
      </g>
     </g>
     <g id="text_13">
      <text style="font: 14px 'Arial'; text-anchor: end" x="62.5" y="98.937561" transform="rotate(-0 62.5 98.937561)">1.25</text>
     </g>
    </g>
    <g id="ytick_7">
     <g id="line2d_13">
      <g>
       <use xlink:href="#m3ce51954bf" x="72" y="61.448511" style="fill: #d3d3d3; stroke: #d3d3d3; stroke-width: 2"/>
      </g>
     </g>
     <g id="text_14">
      <text style="font: 14px 'Arial'; text-anchor: end" x="62.5" y="66.45898" transform="rotate(-0 62.5 66.45898)">1.50</text>
     </g>
    </g>
    <g id="text_15">
     <text style="font: 18px 'Arial'; text-anchor: middle" x="27.677187" y="145.44" transform="rotate(-90 27.677187 145.44)">PDF</text>
    </g>
   </g>
   <g id="line2d_14">
    <path d="M 72 256.068222 
L 99.257658 255.754069 
L 118.472072 255.324122 
L 133.664865 254.769867 
L 146.176577 254.096305 
L 156.900901 253.299458 
L 166.284685 252.381526 
L 174.774775 251.324733 
L 182.371171 250.154169 
L 189.073874 248.909249 
L 195.32973 247.536575 
L 201.138739 246.051743 
L 206.947748 244.335929 
L 212.30991 242.520683 
L 217.225225 240.638747 
L 222.140541 238.526345 
L 227.055856 236.161 
L 231.524324 233.771525 
L 235.992793 231.135658 
L 240.461261 228.235182 
L 244.92973 225.051986 
L 249.398198 221.568429 
L 253.41982 218.162574 
L 257.441441 214.488654 
L 261.463063 210.53677 
L 265.484685 206.298739 
L 269.953153 201.247006 
L 274.421622 195.830385 
L 278.89009 190.049654 
L 283.358559 183.91168 
L 288.273874 176.764295 
L 293.189189 169.232185 
L 298.998198 159.89616 
L 305.700901 148.668423 
L 327.14955 112.304917 
L 331.618018 105.363439 
L 335.63964 99.542994 
L 339.214414 94.79577 
L 342.342342 91.032476 
L 345.023423 88.136952 
L 347.704505 85.579324 
L 349.938739 83.728244 
L 352.172973 82.15031 
L 354.407207 80.861973 
L 356.194595 80.050296 
L 357.981982 79.441393 
L 359.769369 79.04221 
L 361.556757 78.859116 
L 363.344144 78.897836 
L 365.131532 79.163392 
L 366.918919 79.660036 
L 368.706306 80.391194 
L 370.493694 81.359407 
L 372.281081 82.566281 
L 374.068468 84.012434 
L 375.855856 85.697453 
L 378.09009 88.137276 
L 380.324324 90.942622 
L 382.558559 94.105421 
L 384.792793 97.61481 
L 387.473874 102.26414 
L 390.154955 107.36387 
L 393.282883 113.836592 
L 396.410811 120.811647 
L 399.985586 129.304975 
L 404.454054 140.527093 
L 411.156757 158.089773 
L 420.093694 181.461847 
L 424.562162 192.551696 
L 428.583784 201.944225 
L 432.158559 209.715652 
L 435.286486 216.011294 
L 438.414414 221.800297 
L 441.095495 226.342585 
L 443.776577 230.490669 
L 446.457658 234.244827 
L 449.138739 237.611329 
L 451.81982 240.601861 
L 454.500901 243.232831 
L 457.181982 245.524593 
L 459.863063 247.500611 
L 462.544144 249.186598 
L 465.225225 250.609675 
L 467.906306 251.79756 
L 471.034234 252.922926 
L 474.162162 253.808042 
L 477.736937 254.57629 
L 481.758559 255.194154 
L 486.227027 255.651429 
L 492.036036 255.99979 
L 499.632432 256.21025 
L 512.590991 256.307134 
L 518.4 256.315744 
L 518.4 256.315744 
" clip-path="url(#p6831cbeb9a)" style="fill: none; stroke: #97c7dd; stroke-width: 4; stroke-linecap: square"/>
   </g>
   <g id="line2d_15">
    <path d="M 72 256.127232 
L 98.810811 255.83961 
L 117.131532 255.43051 
L 130.983784 254.910529 
L 142.601802 254.255456 
L 152.432432 253.478729 
L 160.922523 252.587785 
L 168.518919 251.568935 
L 175.221622 250.454854 
L 181.477477 249.195738 
L 187.286486 247.802763 
L 192.648649 246.294851 
L 197.563964 244.698558 
L 202.479279 242.870987 
L 206.947748 240.985392 
L 211.416216 238.863149 
L 215.884685 236.48057 
L 219.906306 234.093231 
L 223.927928 231.456409 
L 227.94955 228.551231 
L 231.971171 225.358806 
L 235.992793 221.860568 
L 240.014414 218.038685 
L 244.036036 213.876548 
L 248.057658 209.359343 
L 252.079279 204.474709 
L 256.100901 199.213482 
L 260.122523 193.570526 
L 264.144144 187.545641 
L 268.165766 181.144541 
L 272.634234 173.606623 
L 277.54955 164.831775 
L 282.911712 154.749552 
L 289.167568 142.456903 
L 299.891892 120.743667 
L 307.041441 106.519587 
L 311.956757 97.23968 
L 315.978378 90.139165 
L 319.106306 85.017742 
L 322.234234 80.320544 
L 324.915315 76.683206 
L 327.596396 73.449406 
L 329.830631 71.092724 
L 332.064865 69.068214 
L 333.852252 67.702715 
L 335.63964 66.574806 
L 337.427027 65.69465 
L 339.214414 65.071699 
L 341.001802 64.714595 
L 342.789189 64.631079 
L 344.576577 64.827891 
L 346.363964 65.310684 
L 348.151351 66.083935 
L 349.938739 67.150864 
L 351.726126 68.513356 
L 353.513514 70.171892 
L 355.300901 72.125493 
L 357.088288 74.371664 
L 359.322523 77.584492 
L 361.556757 81.236653 
L 363.790991 85.312885 
L 366.472072 90.736939 
L 369.153153 96.703681 
L 372.281081 104.286719 
L 375.409009 112.45555 
L 378.983784 122.381399 
L 383.899099 136.767867 
L 399.538739 183.278485 
L 403.56036 194.23701 
L 407.135135 203.31491 
L 410.263063 210.666621 
L 413.390991 217.417029 
L 416.072072 222.701555 
L 418.753153 227.513262 
L 421.434234 231.851757 
L 424.115315 235.724622 
L 426.796396 239.146597 
L 429.030631 241.668745 
L 431.264865 243.907069 
L 433.499099 245.878408 
L 435.733333 247.601113 
L 438.414414 249.367498 
L 441.095495 250.838308 
L 443.776577 252.04822 
L 446.457658 253.031141 
L 449.585586 253.934047 
L 453.16036 254.702281 
L 457.181982 255.305122 
L 461.65045 255.738033 
L 467.459459 256.054987 
L 475.502703 256.24159 
L 490.248649 256.314581 
L 518.4 256.319995 
L 518.4 256.319995 
" clip-path="url(#p6831cbeb9a)" style="fill: none; stroke: #645aa3; stroke-width: 4; stroke-linecap: square"/>
   </g>
   <g id="line2d_16">
    <path d="M 72 255.905406 
L 94.342342 255.517862 
L 110.875676 255.019134 
L 124.281081 254.402053 
L 135.452252 253.677642 
L 145.282883 252.826397 
L 154.21982 251.827949 
L 162.263063 250.700372 
L 169.412613 249.47633 
L 176.115315 248.103237 
L 182.371171 246.591702 
L 188.18018 244.959372 
L 193.542342 243.230854 
L 198.904505 241.263466 
L 203.81982 239.227022 
L 208.735135 236.94492 
L 213.203604 234.637665 
L 217.672072 232.090384 
L 222.140541 229.284895 
L 226.609009 226.203011 
L 231.077477 222.82688 
L 235.099099 219.522627 
L 239.120721 215.954548 
L 243.142342 212.112186 
L 247.163964 207.986637 
L 251.185586 203.570993 
L 255.654054 198.319211 
L 260.122523 192.702278 
L 264.590991 186.724182 
L 269.059459 180.395592 
L 273.974775 173.051612 
L 279.336937 164.625999 
L 285.592793 154.34083 
L 293.636036 140.634219 
L 306.594595 118.508144 
L 311.956757 109.834626 
L 315.978378 103.708745 
L 319.553153 98.626709 
L 322.681081 94.520513 
L 325.809009 90.784717 
L 328.49009 87.91555 
L 331.171171 85.386811 
L 333.405405 83.561684 
L 335.63964 82.011345 
L 337.873874 80.752167 
L 339.661261 79.964876 
L 341.448649 79.381237 
L 343.236036 79.008128 
L 345.023423 78.851843 
L 346.810811 78.918026 
L 348.598198 79.211606 
L 350.385586 79.736738 
L 352.172973 80.496744 
L 353.96036 81.494052 
L 355.747748 82.73015 
L 357.535135 84.205532 
L 359.769369 86.38533 
L 362.003604 88.934666 
L 364.237838 91.847414 
L 366.472072 95.114673 
L 369.153153 99.486671 
L 371.834234 104.32665 
L 374.515315 109.603411 
L 377.643243 116.2625 
L 381.218018 124.453325 
L 385.23964 134.271914 
L 390.154955 146.887943 
L 406.241441 188.726611 
L 410.263063 198.355687 
L 413.837838 206.377049 
L 416.965766 212.914863 
L 420.093694 218.961446 
L 423.221622 224.489214 
L 425.902703 228.802616 
L 428.583784 232.721219 
L 431.264865 236.248846 
L 433.945946 239.394995 
L 436.627027 242.174188 
L 439.308108 244.605227 
L 441.989189 246.710378 
L 444.67027 248.514517 
L 447.351351 250.044277 
L 450.032432 251.32722 
L 453.16036 252.548998 
L 456.288288 253.515572 
L 459.863063 254.359955 
L 463.437838 254.97999 
L 467.906306 255.513696 
L 473.268468 255.903359 
L 479.971171 256.152084 
L 490.248649 256.28582 
L 516.165766 256.31983 
L 518.4 256.319903 
L 518.4 256.319903 
" clip-path="url(#p6831cbeb9a)" style="fill: none; stroke: #000000; stroke-width: 4; stroke-linecap: square"/>
   </g>
   <g id="patch_63">
    <path d="M 72 256.32 
L 72 34.56 
" style="fill: none; stroke: #d3d3d3; stroke-width: 2; stroke-linejoin: miter; stroke-linecap: square"/>
   </g>
   <g id="patch_64">
    <path d="M 72 256.32 
L 518.4 256.32 
" style="fill: none; stroke: #d3d3d3; stroke-width: 2; stroke-linejoin: miter; stroke-linecap: square"/>
   </g>
   <g id="text_16">
    <text style="font: 12px 'Arial'; text-anchor: middle" x="295.2" y="28.56" transform="rotate(-0 295.2 28.56)">L1 vs L3 p-value = 0.0; L1-scaled vs L3 p-value = 0.667</text>
   </g>
   <g id="legend_1">
    <g id="patch_65">
     <path d="M 81.8 146.1925 
L 281.131563 146.1925 
Q 283.931563 146.1925 283.931563 143.3925 
L 283.931563 44.36 
Q 283.931563 41.56 281.131563 41.56 
L 81.8 41.56 
Q 79 41.56 79 44.36 
L 79 143.3925 
Q 79 146.1925 81.8 146.1925 
z
" style="fill: #ffffff; opacity: 0.8; stroke: #d3d3d3; stroke-linejoin: miter"/>
    </g>
    <g id="patch_66">
     <path d="M 84.6 57.2225 
L 105.6 57.2225 
L 105.6 47.4225 
L 84.6 47.4225 
z
" style="fill: #97c7dd"/>
    </g>
    <g id="text_17">
     <text style="font: 14px 'Arial'; text-anchor: start" x="112.6" y="57.2225" transform="rotate(-0 112.6 57.2225)">L1 original</text>
    </g>
    <g id="patch_67">
     <path d="M 84.6 77.231562 
L 105.6 77.231562 
L 105.6 67.431562 
L 84.6 67.431562 
z
" style="fill: #645aa3; opacity: 0.7"/>
    </g>
    <g id="text_18">
     <text style="font: 14px 'Arial'; text-anchor: start" x="112.6" y="77.231562" transform="rotate(-0 112.6 77.231562)">L3 original</text>
    </g>
    <g id="line2d_17">
     <path d="M 84.6 92.469687 
L 95.1 92.469687 
L 105.6 92.469687 
" style="fill: none; stroke: #97c7dd; stroke-width: 4; stroke-linecap: square"/>
    </g>
    <g id="text_19">
     <text style="font: 14px 'Arial'; text-anchor: start" x="112.6" y="97.369687" transform="rotate(-0 112.6 97.369687)">gamma fit L1</text>
    </g>
    <g id="line2d_18">
     <path d="M 84.6 112.607812 
L 95.1 112.607812 
L 105.6 112.607812 
" style="fill: none; stroke: #645aa3; stroke-width: 4; stroke-linecap: square"/>
    </g>
    <g id="text_20">
     <text style="font: 14px 'Arial'; text-anchor: start" x="112.6" y="117.507812" transform="rotate(-0 112.6 117.507812)">gamma fit L3</text>
    </g>
    <g id="line2d_19">
     <path d="M 84.6 132.745937 
L 95.1 132.745937 
L 105.6 132.745937 
" style="fill: none; stroke: #000000; stroke-width: 4; stroke-linecap: square"/>
    </g>
    <g id="text_21">
     <text style="font: 14px 'Arial'; text-anchor: start" x="112.6" y="137.645938" transform="rotate(-0 112.6 137.645938)">gamma fit L1 scaled (0.81)</text>
    </g>
   </g>
  </g>
 </g>
 <defs>
  <clipPath id="p6831cbeb9a">
   <rect x="72" y="34.56" width="446.4" height="221.76"/>
  </clipPath>
 </defs>
</svg>
