<?xml version="1.0" encoding="utf-8" standalone="no"?>
<!DOCTYPE svg PUBLIC "-//W3C//DTD SVG 1.1//EN"
  "http://www.w3.org/Graphics/SVG/1.1/DTD/svg11.dtd">
<svg xmlns:xlink="http://www.w3.org/1999/xlink" width="576pt" height="288pt" viewBox="0 0 576 288" xmlns="http://www.w3.org/2000/svg" version="1.1">
 <metadata>
  <rdf:RDF xmlns:dc="http://purl.org/dc/elements/1.1/" xmlns:cc="http://creativecommons.org/ns#" xmlns:rdf="http://www.w3.org/1999/02/22-rdf-syntax-ns#">
   <cc:Work>
    <dc:type rdf:resource="http://purl.org/dc/dcmitype/StillImage"/>
    <dc:date>2025-07-02T14:23:55.756257</dc:date>
    <dc:format>image/svg+xml</dc:format>
    <dc:creator>
     <cc:Agent>
      <dc:title>Matplotlib v3.9.2, https://matplotlib.org/</dc:title>
     </cc:Agent>
    </dc:creator>
   </cc:Work>
  </rdf:RDF>
 </metadata>
 <defs>
  <style type="text/css">*{stroke-linejoin: round; stroke-linecap: butt}</style>
 </defs>
 <g id="figure_1">
  <g id="patch_1">
   <path d="M 0 288 
L 576 288 
L 576 0 
L 0 0 
z
" style="fill: #ffffff"/>
  </g>
  <g id="axes_1">
   <g id="patch_2">
    <path d="M 72 256.32 
L 518.4 256.32 
L 518.4 34.56 
L 72 34.56 
z
" style="fill: #ffffff"/>
   </g>
   <g id="patch_3">
    <path d="M 94.726975 256.32 
L 106.864357 256.32 
L 106.864357 253.623811 
L 94.726975 253.623811 
z
" clip-path="url(#p0c555e9fdd)" style="fill: #645aa3; opacity: 0.7"/>
   </g>
   <g id="patch_4">
    <path d="M 106.864357 256.32 
L 119.001738 256.32 
L 119.001738 253.623811 
L 106.864357 253.623811 
z
" clip-path="url(#p0c555e9fdd)" style="fill: #645aa3; opacity: 0.7"/>
   </g>
   <g id="patch_5">
    <path d="M 119.001738 256.32 
L 131.13912 256.32 
L 131.13912 254.971905 
L 119.001738 254.971905 
z
" clip-path="url(#p0c555e9fdd)" style="fill: #645aa3; opacity: 0.7"/>
   </g>
   <g id="patch_6">
    <path d="M 131.13912 256.32 
L 143.276501 256.32 
L 143.276501 254.971905 
L 131.13912 254.971905 
z
" clip-path="url(#p0c555e9fdd)" style="fill: #645aa3; opacity: 0.7"/>
   </g>
   <g id="patch_7">
    <path d="M 143.276501 256.32 
L 155.413883 256.32 
L 155.413883 250.927621 
L 143.276501 250.927621 
z
" clip-path="url(#p0c555e9fdd)" style="fill: #645aa3; opacity: 0.7"/>
   </g>
   <g id="patch_8">
    <path d="M 155.413883 256.32 
L 167.551265 256.32 
L 167.551265 248.231432 
L 155.413883 248.231432 
z
" clip-path="url(#p0c555e9fdd)" style="fill: #645aa3; opacity: 0.7"/>
   </g>
   <g id="patch_9">
    <path d="M 167.551265 256.32 
L 179.688646 256.32 
L 179.688646 252.275716 
L 167.551265 252.275716 
z
" clip-path="url(#p0c555e9fdd)" style="fill: #645aa3; opacity: 0.7"/>
   </g>
   <g id="patch_10">
    <path d="M 179.688646 256.32 
L 191.826028 256.32 
L 191.826028 250.927621 
L 179.688646 250.927621 
z
" clip-path="url(#p0c555e9fdd)" style="fill: #645aa3; opacity: 0.7"/>
   </g>
   <g id="patch_11">
    <path d="M 191.826028 256.32 
L 203.963409 256.32 
L 203.963409 242.839053 
L 191.826028 242.839053 
z
" clip-path="url(#p0c555e9fdd)" style="fill: #645aa3; opacity: 0.7"/>
   </g>
   <g id="patch_12">
    <path d="M 203.963409 256.32 
L 216.100791 256.32 
L 216.100791 234.750485 
L 203.963409 234.750485 
z
" clip-path="url(#p0c555e9fdd)" style="fill: #645aa3; opacity: 0.7"/>
   </g>
   <g id="patch_13">
    <path d="M 216.100791 256.32 
L 228.238172 256.32 
L 228.238172 228.010011 
L 216.100791 228.010011 
z
" clip-path="url(#p0c555e9fdd)" style="fill: #645aa3; opacity: 0.7"/>
   </g>
   <g id="patch_14">
    <path d="M 228.238172 256.32 
L 240.375554 256.32 
L 240.375554 228.010011 
L 228.238172 228.010011 
z
" clip-path="url(#p0c555e9fdd)" style="fill: #645aa3; opacity: 0.7"/>
   </g>
   <g id="patch_15">
    <path d="M 240.375554 256.32 
L 252.512936 256.32 
L 252.512936 197.003833 
L 240.375554 197.003833 
z
" clip-path="url(#p0c555e9fdd)" style="fill: #645aa3; opacity: 0.7"/>
   </g>
   <g id="patch_16">
    <path d="M 252.512936 256.32 
L 264.650317 256.32 
L 264.650317 192.959548 
L 252.512936 192.959548 
z
" clip-path="url(#p0c555e9fdd)" style="fill: #645aa3; opacity: 0.7"/>
   </g>
   <g id="patch_17">
    <path d="M 264.650317 256.32 
L 276.787699 256.32 
L 276.787699 179.478601 
L 264.650317 179.478601 
z
" clip-path="url(#p0c555e9fdd)" style="fill: #645aa3; opacity: 0.7"/>
   </g>
   <g id="patch_18">
    <path d="M 276.787699 256.32 
L 288.92508 256.32 
L 288.92508 157.909086 
L 276.787699 157.909086 
z
" clip-path="url(#p0c555e9fdd)" style="fill: #645aa3; opacity: 0.7"/>
   </g>
   <g id="patch_19">
    <path d="M 288.92508 256.32 
L 301.062462 256.32 
L 301.062462 117.466244 
L 288.92508 117.466244 
z
" clip-path="url(#p0c555e9fdd)" style="fill: #645aa3; opacity: 0.7"/>
   </g>
   <g id="patch_20">
    <path d="M 301.062462 256.32 
L 313.199843 256.32 
L 313.199843 77.023403 
L 301.062462 77.023403 
z
" clip-path="url(#p0c555e9fdd)" style="fill: #645aa3; opacity: 0.7"/>
   </g>
   <g id="patch_21">
    <path d="M 313.199843 256.32 
L 325.337225 256.32 
L 325.337225 78.371498 
L 313.199843 78.371498 
z
" clip-path="url(#p0c555e9fdd)" style="fill: #645aa3; opacity: 0.7"/>
   </g>
   <g id="patch_22">
    <path d="M 325.337225 256.32 
L 337.474607 256.32 
L 337.474607 50.061508 
L 325.337225 50.061508 
z
" clip-path="url(#p0c555e9fdd)" style="fill: #645aa3; opacity: 0.7"/>
   </g>
   <g id="patch_23">
    <path d="M 337.474607 256.32 
L 349.611988 256.32 
L 349.611988 47.365319 
L 337.474607 47.365319 
z
" clip-path="url(#p0c555e9fdd)" style="fill: #645aa3; opacity: 0.7"/>
   </g>
   <g id="patch_24">
    <path d="M 349.611988 256.32 
L 361.74937 256.32 
L 361.74937 50.061508 
L 349.611988 50.061508 
z
" clip-path="url(#p0c555e9fdd)" style="fill: #645aa3; opacity: 0.7"/>
   </g>
   <g id="patch_25">
    <path d="M 361.74937 256.32 
L 373.886751 256.32 
L 373.886751 63.542456 
L 361.74937 63.542456 
z
" clip-path="url(#p0c555e9fdd)" style="fill: #645aa3; opacity: 0.7"/>
   </g>
   <g id="patch_26">
    <path d="M 373.886751 256.32 
L 386.024133 256.32 
L 386.024133 105.333392 
L 373.886751 105.333392 
z
" clip-path="url(#p0c555e9fdd)" style="fill: #645aa3; opacity: 0.7"/>
   </g>
   <g id="patch_27">
    <path d="M 386.024133 256.32 
L 398.161514 256.32 
L 398.161514 163.301465 
L 386.024133 163.301465 
z
" clip-path="url(#p0c555e9fdd)" style="fill: #645aa3; opacity: 0.7"/>
   </g>
   <g id="patch_28">
    <path d="M 398.161514 256.32 
L 410.298896 256.32 
L 410.298896 187.567169 
L 398.161514 187.567169 
z
" clip-path="url(#p0c555e9fdd)" style="fill: #645aa3; opacity: 0.7"/>
   </g>
   <g id="patch_29">
    <path d="M 410.298896 256.32 
L 422.436278 256.32 
L 422.436278 211.832874 
L 410.298896 211.832874 
z
" clip-path="url(#p0c555e9fdd)" style="fill: #645aa3; opacity: 0.7"/>
   </g>
   <g id="patch_30">
    <path d="M 422.436278 256.32 
L 434.573659 256.32 
L 434.573659 244.187148 
L 422.436278 244.187148 
z
" clip-path="url(#p0c555e9fdd)" style="fill: #645aa3; opacity: 0.7"/>
   </g>
   <g id="patch_31">
    <path d="M 434.573659 256.32 
L 446.711041 256.32 
L 446.711041 252.275716 
L 434.573659 252.275716 
z
" clip-path="url(#p0c555e9fdd)" style="fill: #645aa3; opacity: 0.7"/>
   </g>
   <g id="patch_32">
    <path d="M 446.711041 256.32 
L 458.848422 256.32 
L 458.848422 254.971905 
L 446.711041 254.971905 
z
" clip-path="url(#p0c555e9fdd)" style="fill: #645aa3; opacity: 0.7"/>
   </g>
   <g id="matplotlib.axis_1">
    <g id="xtick_1">
     <g id="line2d_1">
      <defs>
       <path id="mdcf0acd68b" d="M 0 0 
L 0 6 
" style="stroke: #d3d3d3; stroke-width: 2"/>
      </defs>
      <g>
       <use xlink:href="#mdcf0acd68b" x="72" y="256.32" style="fill: #d3d3d3; stroke: #d3d3d3; stroke-width: 2"/>
      </g>
     </g>
     <g id="text_1">
      <text style="font: 14px 'Arial'; text-anchor: middle" x="72" y="275.840937" transform="rotate(-0 72 275.840937)">3.0</text>
     </g>
    </g>
    <g id="xtick_2">
     <g id="line2d_2">
      <g>
       <use xlink:href="#mdcf0acd68b" x="161.28" y="256.32" style="fill: #d3d3d3; stroke: #d3d3d3; stroke-width: 2"/>
      </g>
     </g>
     <g id="text_2">
      <text style="font: 14px 'Arial'; text-anchor: middle" x="161.28" y="275.840937" transform="rotate(-0 161.28 275.840937)">3.5</text>
     </g>
    </g>
    <g id="xtick_3">
     <g id="line2d_3">
      <g>
       <use xlink:href="#mdcf0acd68b" x="250.56" y="256.32" style="fill: #d3d3d3; stroke: #d3d3d3; stroke-width: 2"/>
      </g>
     </g>
     <g id="text_3">
      <text style="font: 14px 'Arial'; text-anchor: middle" x="250.56" y="275.840937" transform="rotate(-0 250.56 275.840937)">4.0</text>
     </g>
    </g>
    <g id="xtick_4">
     <g id="line2d_4">
      <g>
       <use xlink:href="#mdcf0acd68b" x="339.84" y="256.32" style="fill: #d3d3d3; stroke: #d3d3d3; stroke-width: 2"/>
      </g>
     </g>
     <g id="text_4">
      <text style="font: 14px 'Arial'; text-anchor: middle" x="339.84" y="275.840937" transform="rotate(-0 339.84 275.840937)">4.5</text>
     </g>
    </g>
    <g id="xtick_5">
     <g id="line2d_5">
      <g>
       <use xlink:href="#mdcf0acd68b" x="429.12" y="256.32" style="fill: #d3d3d3; stroke: #d3d3d3; stroke-width: 2"/>
      </g>
     </g>
     <g id="text_5">
      <text style="font: 14px 'Arial'; text-anchor: middle" x="429.12" y="275.840937" transform="rotate(-0 429.12 275.840937)">5.0</text>
     </g>
    </g>
    <g id="xtick_6">
     <g id="line2d_6">
      <g>
       <use xlink:href="#mdcf0acd68b" x="518.4" y="256.32" style="fill: #d3d3d3; stroke: #d3d3d3; stroke-width: 2"/>
      </g>
     </g>
     <g id="text_6">
      <text style="font: 14px 'Arial'; text-anchor: middle" x="518.4" y="275.840937" transform="rotate(-0 518.4 275.840937)">5.5</text>
     </g>
    </g>
    <g id="text_7">
     <text style="font: 18px 'Arial'; text-anchor: middle" x="295.2" y="295.5075" transform="rotate(-0 295.2 295.5075)">Area</text>
    </g>
   </g>
   <g id="matplotlib.axis_2">
    <g id="ytick_1">
     <g id="line2d_7">
      <defs>
       <path id="m1914edcddc" d="M 0 0 
L -6 0 
" style="stroke: #d3d3d3; stroke-width: 2"/>
      </defs>
      <g>
       <use xlink:href="#m1914edcddc" x="72" y="256.32" style="fill: #d3d3d3; stroke: #d3d3d3; stroke-width: 2"/>
      </g>
     </g>
     <g id="text_8">
      <text style="font: 14px 'Arial'; text-anchor: end" x="62.5" y="261.330469" transform="rotate(-0 62.5 261.330469)">0.00</text>
     </g>
    </g>
    <g id="ytick_2">
     <g id="line2d_8">
      <g>
       <use xlink:href="#m1914edcddc" x="72" y="220.536545" style="fill: #d3d3d3; stroke: #d3d3d3; stroke-width: 2"/>
      </g>
     </g>
     <g id="text_9">
      <text style="font: 14px 'Arial'; text-anchor: end" x="62.5" y="225.547014" transform="rotate(-0 62.5 225.547014)">0.25</text>
     </g>
    </g>
    <g id="ytick_3">
     <g id="line2d_9">
      <g>
       <use xlink:href="#m1914edcddc" x="72" y="184.75309" style="fill: #d3d3d3; stroke: #d3d3d3; stroke-width: 2"/>
      </g>
     </g>
     <g id="text_10">
      <text style="font: 14px 'Arial'; text-anchor: end" x="62.5" y="189.763558" transform="rotate(-0 62.5 189.763558)">0.50</text>
     </g>
    </g>
    <g id="ytick_4">
     <g id="line2d_10">
      <g>
       <use xlink:href="#m1914edcddc" x="72" y="148.969635" style="fill: #d3d3d3; stroke: #d3d3d3; stroke-width: 2"/>
      </g>
     </g>
     <g id="text_11">
      <text style="font: 14px 'Arial'; text-anchor: end" x="62.5" y="153.980103" transform="rotate(-0 62.5 153.980103)">0.75</text>
     </g>
    </g>
    <g id="ytick_5">
     <g id="line2d_11">
      <g>
       <use xlink:href="#m1914edcddc" x="72" y="113.186179" style="fill: #d3d3d3; stroke: #d3d3d3; stroke-width: 2"/>
      </g>
     </g>
     <g id="text_12">
      <text style="font: 14px 'Arial'; text-anchor: end" x="62.5" y="118.196648" transform="rotate(-0 62.5 118.196648)">1.00</text>
     </g>
    </g>
    <g id="ytick_6">
     <g id="line2d_12">
      <g>
       <use xlink:href="#m1914edcddc" x="72" y="77.402724" style="fill: #d3d3d3; stroke: #d3d3d3; stroke-width: 2"/>
      </g>
     </g>
     <g id="text_13">
      <text style="font: 14px 'Arial'; text-anchor: end" x="62.5" y="82.413193" transform="rotate(-0 62.5 82.413193)">1.25</text>
     </g>
    </g>
    <g id="ytick_7">
     <g id="line2d_13">
      <g>
       <use xlink:href="#m1914edcddc" x="72" y="41.619269" style="fill: #d3d3d3; stroke: #d3d3d3; stroke-width: 2"/>
      </g>
     </g>
     <g id="text_14">
      <text style="font: 14px 'Arial'; text-anchor: end" x="62.5" y="46.629738" transform="rotate(-0 62.5 46.629738)">1.50</text>
     </g>
    </g>
    <g id="text_15">
     <text style="font: 18px 'Arial'; text-anchor: middle" x="27.677187" y="145.44" transform="rotate(-90 27.677187 145.44)">PDF</text>
    </g>
   </g>
   <g id="line2d_14">
    <path d="M 72 256.107617 
L 97.917117 255.80649 
L 115.790991 255.382949 
L 129.196396 254.856218 
L 140.367568 254.205637 
L 149.751351 253.449689 
L 158.241441 252.546131 
L 165.837838 251.511475 
L 172.540541 250.378617 
L 178.796396 249.096593 
L 184.605405 247.676377 
L 189.967568 246.136909 
L 194.882883 244.505034 
L 199.798198 242.634154 
L 204.266667 240.701162 
L 208.735135 238.522454 
L 212.756757 236.330649 
L 216.778378 233.899994 
L 220.8 231.210434 
L 224.821622 228.241401 
L 228.843243 224.972069 
L 232.864865 221.381671 
L 236.43964 217.904225 
L 240.014414 214.143352 
L 243.589189 210.086252 
L 247.163964 205.721361 
L 250.738739 201.038742 
L 254.76036 195.381329 
L 258.781982 189.304677 
L 262.803604 182.806636 
L 266.825225 175.891206 
L 271.293694 167.731845 
L 275.762162 159.099043 
L 280.677477 149.107405 
L 286.03964 137.708044 
L 293.189189 121.943155 
L 306.594595 92.233824 
L 311.50991 81.955118 
L 315.531532 74.069272 
L 318.659459 68.365994 
L 321.787387 63.119508 
L 324.468468 59.042461 
L 327.14955 55.402304 
L 329.383784 52.735657 
L 331.618018 50.429953 
L 333.405405 48.861897 
L 335.192793 47.552697 
L 336.98018 46.513731 
L 338.767568 45.755618 
L 340.554955 45.288112 
L 341.895495 45.133519 
L 343.236036 45.150671 
L 344.576577 45.342519 
L 345.917117 45.711627 
L 347.257658 46.260149 
L 349.045045 47.27351 
L 350.832432 48.61166 
L 352.61982 50.27591 
L 354.407207 52.265993 
L 356.194595 54.580003 
L 357.981982 57.214342 
L 360.216216 60.949452 
L 362.45045 65.162386 
L 364.684685 69.834623 
L 367.365766 76.01525 
L 370.046847 82.777151 
L 373.174775 91.326635 
L 376.74955 101.844686 
L 380.771171 114.427744 
L 386.133333 131.999441 
L 397.304505 168.828939 
L 401.772973 182.651402 
L 405.347748 193.014401 
L 408.475676 201.470949 
L 411.603604 209.292005 
L 414.284685 215.456661 
L 416.965766 221.105894 
L 419.646847 226.233028 
L 422.327928 230.840648 
L 425.009009 234.939844 
L 427.243243 237.980705 
L 429.477477 240.695568 
L 431.711712 243.101278 
L 433.945946 245.216764 
L 436.18018 247.062511 
L 438.414414 248.660042 
L 441.095495 250.280516 
L 443.776577 251.613543 
L 446.457658 252.696482 
L 449.585586 253.691263 
L 452.713514 254.446515 
L 456.288288 255.076384 
L 460.30991 255.559111 
L 465.225225 255.921362 
L 471.927928 256.168683 
L 482.205405 256.292358 
L 511.25045 256.319959 
L 518.4 256.319995 
L 518.4 256.319995 
" clip-path="url(#p0c555e9fdd)" style="fill: none; stroke: #000000; stroke-width: 4; stroke-linecap: square"/>
   </g>
   <g id="line2d_15">
    <path d="M 72 256.318852 
L 126.962162 256.20273 
L 143.048649 255.952161 
L 153.772973 255.572554 
L 161.816216 255.082864 
L 168.518919 254.471344 
L 174.327928 253.736503 
L 179.69009 252.840029 
L 184.605405 251.789861 
L 189.073874 250.606888 
L 193.095495 249.324483 
L 197.117117 247.805229 
L 200.691892 246.23061 
L 204.266667 244.421086 
L 207.841441 242.353092 
L 211.416216 240.002871 
L 214.544144 237.696425 
L 217.672072 235.140621 
L 220.8 232.320939 
L 223.927928 229.223941 
L 227.055856 225.837619 
L 230.183784 222.151769 
L 233.311712 218.158366 
L 236.886486 213.211012 
L 240.461261 207.851543 
L 244.036036 202.082323 
L 247.610811 195.912136 
L 251.632432 188.511342 
L 255.654054 180.657109 
L 260.122523 171.455286 
L 265.484685 159.867575 
L 272.187387 144.810739 
L 286.03964 113.537889 
L 290.954955 103.079724 
L 294.976577 95.02968 
L 298.551351 88.364008 
L 301.679279 82.978288 
L 304.807207 78.065082 
L 307.488288 74.267355 
L 310.169369 70.881619 
L 312.403604 68.393577 
L 314.637838 66.222901 
L 316.872072 64.381299 
L 319.106306 62.878777 
L 320.893694 61.926475 
L 322.681081 61.19982 
L 324.468468 60.701372 
L 326.255856 60.43289 
L 328.043243 60.395325 
L 329.830631 60.588808 
L 331.618018 61.012656 
L 333.405405 61.665371 
L 335.192793 62.544652 
L 336.98018 63.647406 
L 338.767568 64.969769 
L 341.001802 66.924448 
L 343.236036 69.204408 
L 345.47027 71.797385 
L 348.151351 75.302576 
L 350.832432 79.211941 
L 353.513514 83.496248 
L 356.641441 88.926343 
L 360.216216 95.636037 
L 364.237838 103.726692 
L 368.706306 113.245174 
L 374.515315 126.179697 
L 392.389189 166.401834 
L 397.304505 176.757262 
L 401.772973 185.681697 
L 405.794595 193.253351 
L 409.816216 200.348703 
L 413.390991 206.234411 
L 416.965766 211.71221 
L 420.540541 216.777953 
L 424.115315 221.433444 
L 427.69009 225.685729 
L 430.818018 229.084703 
L 433.945946 232.193877 
L 437.073874 235.025188 
L 440.201802 237.592019 
L 443.776577 240.220302 
L 447.351351 242.544892 
L 450.926126 244.589331 
L 454.500901 246.377374 
L 458.075676 247.932551 
L 462.097297 249.432287 
L 466.118919 250.697541 
L 470.587387 251.864042 
L 475.502703 252.898957 
L 480.864865 253.781822 
L 486.673874 254.504991 
L 493.376577 255.10632 
L 501.41982 255.587406 
L 511.25045 255.937341 
L 518.4 256.086681 
L 518.4 256.086681 
" clip-path="url(#p0c555e9fdd)" style="fill: none; stroke: #808080; stroke-width: 4; stroke-linecap: square"/>
   </g>
   <g id="patch_33">
    <path d="M 72 256.32 
L 72 34.56 
" style="fill: none; stroke: #d3d3d3; stroke-width: 2; stroke-linejoin: miter; stroke-linecap: square"/>
   </g>
   <g id="patch_34">
    <path d="M 72 256.32 
L 518.4 256.32 
" style="fill: none; stroke: #d3d3d3; stroke-width: 2; stroke-linejoin: miter; stroke-linecap: square"/>
   </g>
   <g id="text_16">
    <text style="font: 12px 'Arial'; text-anchor: middle" x="295.2" y="28.56" transform="rotate(-0 295.2 28.56)">Fitted Distributions to PSD Areas</text>
   </g>
   <g id="legend_1">
    <g id="patch_35">
     <path d="M 394.08875 105.839688 
L 508.6 105.839688 
Q 511.4 105.839688 511.4 103.039688 
L 511.4 44.36 
Q 511.4 41.56 508.6 41.56 
L 394.08875 41.56 
Q 391.28875 41.56 391.28875 44.36 
L 391.28875 103.039688 
Q 391.28875 105.839688 394.08875 105.839688 
z
" style="fill: #ffffff; opacity: 0.8; stroke: #d3d3d3; stroke-linejoin: miter"/>
    </g>
    <g id="patch_36">
     <path d="M 396.88875 57.180938 
L 417.88875 57.180938 
L 417.88875 47.380938 
L 396.88875 47.380938 
z
" style="fill: #645aa3; opacity: 0.7"/>
    </g>
    <g id="text_17">
     <text style="font: 14px 'Arial'; text-anchor: start" x="424.88875" y="57.180938" transform="rotate(-0 424.88875 57.180938)">area</text>
    </g>
    <g id="line2d_16">
     <path d="M 396.88875 72.255 
L 407.38875 72.255 
L 417.88875 72.255 
" style="fill: none; stroke: #000000; stroke-width: 4; stroke-linecap: square"/>
    </g>
    <g id="text_18">
     <text style="font: 14px 'Arial'; text-anchor: start" x="424.88875" y="77.155" transform="rotate(-0 424.88875 77.155)">gamma fit</text>
    </g>
    <g id="line2d_17">
     <path d="M 396.88875 92.393125 
L 407.38875 92.393125 
L 417.88875 92.393125 
" style="fill: none; stroke: #808080; stroke-width: 4; stroke-linecap: square"/>
    </g>
    <g id="text_19">
     <text style="font: 14px 'Arial'; text-anchor: start" x="424.88875" y="97.293125" transform="rotate(-0 424.88875 97.293125)">log-normal fit</text>
    </g>
   </g>
  </g>
 </g>
 <defs>
  <clipPath id="p0c555e9fdd">
   <rect x="72" y="34.56" width="446.4" height="221.76"/>
  </clipPath>
 </defs>
</svg>
