<?xml version="1.0" encoding="utf-8" standalone="no"?>
<!DOCTYPE svg PUBLIC "-//W3C//DTD SVG 1.1//EN"
  "http://www.w3.org/Graphics/SVG/1.1/DTD/svg11.dtd">
<svg xmlns:xlink="http://www.w3.org/1999/xlink" width="288pt" height="216pt" viewBox="0 0 288 216" xmlns="http://www.w3.org/2000/svg" version="1.1">
 <metadata>
  <rdf:RDF xmlns:dc="http://purl.org/dc/elements/1.1/" xmlns:cc="http://creativecommons.org/ns#" xmlns:rdf="http://www.w3.org/1999/02/22-rdf-syntax-ns#">
   <cc:Work>
    <dc:type rdf:resource="http://purl.org/dc/dcmitype/StillImage"/>
    <dc:date>2025-07-22T15:47:00.468720</dc:date>
    <dc:format>image/svg+xml</dc:format>
    <dc:creator>
     <cc:Agent>
      <dc:title>Matplotlib v3.9.2, https://matplotlib.org/</dc:title>
     </cc:Agent>
    </dc:creator>
   </cc:Work>
  </rdf:RDF>
 </metadata>
 <defs>
  <style type="text/css">*{stroke-linejoin: round; stroke-linecap: butt}</style>
 </defs>
 <g id="figure_1">
  <g id="patch_1">
   <path d="M 0 216 
L 288 216 
L 288 0 
L 0 0 
z
" style="fill: #ffffff"/>
  </g>
  <g id="axes_1">
   <g id="patch_2">
    <path d="M 36 192.24 
L 259.2 192.24 
L 259.2 25.92 
L 36 25.92 
z
" style="fill: #ffffff"/>
   </g>
   <g id="PathCollection_1">
    <defs>
     <path id="C0_0_2a84181a31" d="M 0 3.535534 
C 0.937635 3.535534 1.836992 3.163008 2.5 2.5 
C 3.163008 1.836992 3.535534 0.937635 3.535534 -0 
C 3.535534 -0.937635 3.163008 -1.836992 2.5 -2.5 
C 1.836992 -3.163008 0.937635 -3.535534 0 -3.535534 
C -0.937635 -3.535534 -1.836992 -3.163008 -2.5 -2.5 
C -3.163008 -1.836992 -3.535534 -0.937635 -3.535534 0 
C -3.535534 0.937635 -3.163008 1.836992 -2.5 2.5 
C -1.836992 3.163008 -0.937635 3.535534 0 3.535534 
z
"/>
    </defs>
    <g clip-path="url(#pc8d8c36a82)">
     <use xlink:href="#C0_0_2a84181a31" x="46.472967" y="99.101539" style="fill: #97c7dd; stroke: #ffffff; stroke-width: 0.565685"/>
    </g>
    <g clip-path="url(#pc8d8c36a82)">
     <use xlink:href="#C0_0_2a84181a31" x="57.832947" y="102.451454" style="fill: #97c7dd; stroke: #ffffff; stroke-width: 0.565685"/>
    </g>
    <g clip-path="url(#pc8d8c36a82)">
     <use xlink:href="#C0_0_2a84181a31" x="46.145455" y="95.997396" style="fill: #97c7dd; stroke: #ffffff; stroke-width: 0.565685"/>
    </g>
    <g clip-path="url(#pc8d8c36a82)">
     <use xlink:href="#C0_0_2a84181a31" x="79.114223" y="121.273886" style="fill: #97c7dd; stroke: #ffffff; stroke-width: 0.565685"/>
    </g>
    <g clip-path="url(#pc8d8c36a82)">
     <use xlink:href="#C0_0_2a84181a31" x="134.973757" y="93.580714" style="fill: #97c7dd; stroke: #ffffff; stroke-width: 0.565685"/>
    </g>
    <g clip-path="url(#pc8d8c36a82)">
     <use xlink:href="#C0_0_2a84181a31" x="144.14728" y="108.88461" style="fill: #97c7dd; stroke: #ffffff; stroke-width: 0.565685"/>
    </g>
    <g clip-path="url(#pc8d8c36a82)">
     <use xlink:href="#C0_0_2a84181a31" x="110.196054" y="106.836926" style="fill: #97c7dd; stroke: #ffffff; stroke-width: 0.565685"/>
    </g>
    <g clip-path="url(#pc8d8c36a82)">
     <use xlink:href="#C0_0_2a84181a31" x="102.574715" y="98.492237" style="fill: #97c7dd; stroke: #ffffff; stroke-width: 0.565685"/>
    </g>
    <g clip-path="url(#pc8d8c36a82)">
     <use xlink:href="#C0_0_2a84181a31" x="99.433586" y="104.753568" style="fill: #97c7dd; stroke: #ffffff; stroke-width: 0.565685"/>
    </g>
    <g clip-path="url(#pc8d8c36a82)">
     <use xlink:href="#C0_0_2a84181a31" x="114.934773" y="112.648632" style="fill: #97c7dd; stroke: #ffffff; stroke-width: 0.565685"/>
    </g>
    <g clip-path="url(#pc8d8c36a82)">
     <use xlink:href="#C0_0_2a84181a31" x="89.103844" y="115.679632" style="fill: #97c7dd; stroke: #ffffff; stroke-width: 0.565685"/>
    </g>
    <g clip-path="url(#pc8d8c36a82)">
     <use xlink:href="#C0_0_2a84181a31" x="77.31341" y="109.120353" style="fill: #97c7dd; stroke: #ffffff; stroke-width: 0.565685"/>
    </g>
    <g clip-path="url(#pc8d8c36a82)">
     <use xlink:href="#C0_0_2a84181a31" x="181.97218" y="110.590341" style="fill: #645aa3; stroke: #ffffff; stroke-width: 0.565685"/>
    </g>
    <g clip-path="url(#pc8d8c36a82)">
     <use xlink:href="#C0_0_2a84181a31" x="174.500496" y="95.796096" style="fill: #645aa3; stroke: #ffffff; stroke-width: 0.565685"/>
    </g>
    <g clip-path="url(#pc8d8c36a82)">
     <use xlink:href="#C0_0_2a84181a31" x="186.709551" y="104.092718" style="fill: #645aa3; stroke: #ffffff; stroke-width: 0.565685"/>
    </g>
    <g clip-path="url(#pc8d8c36a82)">
     <use xlink:href="#C0_0_2a84181a31" x="170.422002" y="121.068131" style="fill: #645aa3; stroke: #ffffff; stroke-width: 0.565685"/>
    </g>
    <g clip-path="url(#pc8d8c36a82)">
     <use xlink:href="#C0_0_2a84181a31" x="249.054545" y="114.01268" style="fill: #645aa3; stroke: #ffffff; stroke-width: 0.565685"/>
    </g>
    <g clip-path="url(#pc8d8c36a82)">
     <use xlink:href="#C0_0_2a84181a31" x="248.15349" y="108.116429" style="fill: #645aa3; stroke: #ffffff; stroke-width: 0.565685"/>
    </g>
    <g clip-path="url(#pc8d8c36a82)">
     <use xlink:href="#C0_0_2a84181a31" x="228.208776" y="120.676278" style="fill: #645aa3; stroke: #ffffff; stroke-width: 0.565685"/>
    </g>
    <g clip-path="url(#pc8d8c36a82)">
     <use xlink:href="#C0_0_2a84181a31" x="238.412818" y="127.007586" style="fill: #645aa3; stroke: #ffffff; stroke-width: 0.565685"/>
    </g>
    <g clip-path="url(#pc8d8c36a82)">
     <use xlink:href="#C0_0_2a84181a31" x="208.643594" y="116.692105" style="fill: #645aa3; stroke: #ffffff; stroke-width: 0.565685"/>
    </g>
    <g clip-path="url(#pc8d8c36a82)">
     <use xlink:href="#C0_0_2a84181a31" x="212.027426" y="119.364771" style="fill: #645aa3; stroke: #ffffff; stroke-width: 0.565685"/>
    </g>
    <g clip-path="url(#pc8d8c36a82)">
     <use xlink:href="#C0_0_2a84181a31" x="199.598742" y="115.056485" style="fill: #645aa3; stroke: #ffffff; stroke-width: 0.565685"/>
    </g>
    <g clip-path="url(#pc8d8c36a82)">
     <use xlink:href="#C0_0_2a84181a31" x="211.798426" y="108.676533" style="fill: #645aa3; stroke: #ffffff; stroke-width: 0.565685"/>
    </g>
   </g>
   <g id="matplotlib.axis_1">
    <g id="xtick_1">
     <g id="line2d_1">
      <defs>
       <path id="mc0f7310516" d="M 0 0 
L 0 6 
" style="stroke: #d3d3d3; stroke-width: 2"/>
      </defs>
      <g>
       <use xlink:href="#mc0f7310516" x="55.05257" y="192.24" style="fill: #d3d3d3; stroke: #d3d3d3; stroke-width: 2"/>
      </g>
     </g>
     <g id="text_1">
      <!-- $\mathdefault{10^{2}}$ -->
      <g transform="translate(44.06257 216.1775)">
       <text>
        <tspan style="font: 14px 'Arial'" x="0 7.786133" y="-0.19912500000000222">10</tspan>
        <tspan style="font: 9.8px 'Arial'" x="15.816194" y="-9.95625">2</tspan>
       </text>
      </g>
     </g>
    </g>
    <g id="xtick_2">
     <g id="line2d_2">
      <g>
       <use xlink:href="#mc0f7310516" x="219.782623" y="192.24" style="fill: #d3d3d3; stroke: #d3d3d3; stroke-width: 2"/>
      </g>
     </g>
     <g id="text_2">
      <!-- $\mathdefault{10^{3}}$ -->
      <g transform="translate(208.792623 216.1775)">
       <text>
        <tspan style="font: 14px 'Arial'" x="0 7.786133" y="-0.19912500000000222">10</tspan>
        <tspan style="font: 9.8px 'Arial'" x="15.816194" y="-9.95625">3</tspan>
       </text>
      </g>
     </g>
    </g>
    <g id="xtick_3">
     <g id="line2d_3">
      <defs>
       <path id="me7c6a5397c" d="M 0 0 
L 0 4 
" style="stroke: #d3d3d3"/>
      </defs>
      <g>
       <use xlink:href="#me7c6a5397c" x="39.088578" y="192.24" style="fill: #d3d3d3; stroke: #d3d3d3"/>
      </g>
     </g>
    </g>
    <g id="xtick_4">
     <g id="line2d_4">
      <g>
       <use xlink:href="#me7c6a5397c" x="47.514936" y="192.24" style="fill: #d3d3d3; stroke: #d3d3d3"/>
      </g>
     </g>
    </g>
    <g id="xtick_5">
     <g id="line2d_5">
      <g>
       <use xlink:href="#me7c6a5397c" x="104.641257" y="192.24" style="fill: #d3d3d3; stroke: #d3d3d3"/>
      </g>
     </g>
    </g>
    <g id="xtick_6">
     <g id="line2d_6">
      <g>
       <use xlink:href="#me7c6a5397c" x="133.648779" y="192.24" style="fill: #d3d3d3; stroke: #d3d3d3"/>
      </g>
     </g>
    </g>
    <g id="xtick_7">
     <g id="line2d_7">
      <g>
       <use xlink:href="#me7c6a5397c" x="154.229944" y="192.24" style="fill: #d3d3d3; stroke: #d3d3d3"/>
      </g>
     </g>
    </g>
    <g id="xtick_8">
     <g id="line2d_8">
      <g>
       <use xlink:href="#me7c6a5397c" x="170.193936" y="192.24" style="fill: #d3d3d3; stroke: #d3d3d3"/>
      </g>
     </g>
    </g>
    <g id="xtick_9">
     <g id="line2d_9">
      <g>
       <use xlink:href="#me7c6a5397c" x="183.237466" y="192.24" style="fill: #d3d3d3; stroke: #d3d3d3"/>
      </g>
     </g>
    </g>
    <g id="xtick_10">
     <g id="line2d_10">
      <g>
       <use xlink:href="#me7c6a5397c" x="194.265615" y="192.24" style="fill: #d3d3d3; stroke: #d3d3d3"/>
      </g>
     </g>
    </g>
    <g id="xtick_11">
     <g id="line2d_11">
      <g>
       <use xlink:href="#me7c6a5397c" x="203.818631" y="192.24" style="fill: #d3d3d3; stroke: #d3d3d3"/>
      </g>
     </g>
    </g>
    <g id="xtick_12">
     <g id="line2d_12">
      <g>
       <use xlink:href="#me7c6a5397c" x="212.244989" y="192.24" style="fill: #d3d3d3; stroke: #d3d3d3"/>
      </g>
     </g>
    </g>
    <g id="text_3">
     <text style="font: 18px 'Arial'; text-anchor: middle" x="147.6" y="236.063437" transform="rotate(-0 147.6 236.063437)">Length (um)</text>
    </g>
   </g>
   <g id="matplotlib.axis_2">
    <g id="ytick_1">
     <g id="line2d_13">
      <defs>
       <path id="mffd84695de" d="M 0 0 
L -6 0 
" style="stroke: #d3d3d3; stroke-width: 2"/>
      </defs>
      <g>
       <use xlink:href="#mffd84695de" x="36" y="192.24" style="fill: #d3d3d3; stroke: #d3d3d3; stroke-width: 2"/>
      </g>
     </g>
     <g id="text_4">
      <text style="font: 14px 'Arial'; text-anchor: end" x="26.5" y="197.250469" transform="rotate(-0 26.5 197.250469)">4</text>
     </g>
    </g>
    <g id="ytick_2">
     <g id="line2d_14">
      <g>
       <use xlink:href="#mffd84695de" x="36" y="150.66" style="fill: #d3d3d3; stroke: #d3d3d3; stroke-width: 2"/>
      </g>
     </g>
     <g id="text_5">
      <text style="font: 14px 'Arial'; text-anchor: end" x="26.5" y="155.670469" transform="rotate(-0 26.5 155.670469)">6</text>
     </g>
    </g>
    <g id="ytick_3">
     <g id="line2d_15">
      <g>
       <use xlink:href="#mffd84695de" x="36" y="109.08" style="fill: #d3d3d3; stroke: #d3d3d3; stroke-width: 2"/>
      </g>
     </g>
     <g id="text_6">
      <text style="font: 14px 'Arial'; text-anchor: end" x="26.5" y="114.090469" transform="rotate(-0 26.5 114.090469)">8</text>
     </g>
    </g>
    <g id="ytick_4">
     <g id="line2d_16">
      <g>
       <use xlink:href="#mffd84695de" x="36" y="67.5" style="fill: #d3d3d3; stroke: #d3d3d3; stroke-width: 2"/>
      </g>
     </g>
     <g id="text_7">
      <text style="font: 14px 'Arial'; text-anchor: end" x="26.5" y="72.510469" transform="rotate(-0 26.5 72.510469)">10</text>
     </g>
    </g>
    <g id="ytick_5">
     <g id="line2d_17">
      <g>
       <use xlink:href="#mffd84695de" x="36" y="25.92" style="fill: #d3d3d3; stroke: #d3d3d3; stroke-width: 2"/>
      </g>
     </g>
     <g id="text_8">
      <text style="font: 14px 'Arial'; text-anchor: end" x="26.5" y="30.930469" transform="rotate(-0 26.5 30.930469)">12</text>
     </g>
    </g>
    <g id="text_9">
     <text style="font: 18px 'Arial'; text-anchor: middle" x="3.140937" y="109.08" transform="rotate(-90 3.140937 109.08)">Voltage (mV)</text>
    </g>
   </g>
   <g id="line2d_18"/>
   <g id="line2d_19"/>
   <g id="LineCollection_1">
    <path d="M 46.145455 109.08 
L 249.054545 109.08 
" clip-path="url(#pc8d8c36a82)" style="fill: none; stroke-dasharray: 7.4,3.2; stroke-dashoffset: 0; stroke: #000000; stroke-width: 2"/>
   </g>
   <g id="patch_3">
    <path d="M 36 192.24 
L 36 25.92 
" style="fill: none; stroke: #d3d3d3; stroke-width: 2; stroke-linejoin: miter; stroke-linecap: square"/>
   </g>
   <g id="patch_4">
    <path d="M 36 192.24 
L 259.2 192.24 
" style="fill: none; stroke: #d3d3d3; stroke-width: 2; stroke-linejoin: miter; stroke-linecap: square"/>
   </g>
   <g id="legend_1">
    <g id="patch_5">
     <path d="M 200.229375 92.872187 
L 249.4 92.872187 
Q 252.2 92.872187 252.2 90.072187 
L 252.2 35.72 
Q 252.2 32.92 249.4 32.92 
L 200.229375 32.92 
Q 197.429375 32.92 197.429375 35.72 
L 197.429375 90.072187 
Q 197.429375 92.872187 200.229375 92.872187 
z
" style="fill: #ffffff; opacity: 0.8; stroke: #d3d3d3; stroke-linejoin: miter"/>
    </g>
    <g id="text_10">
     <text style="font: 10px 'Arial'; text-anchor: start" x="212.588906" y="45.677812" transform="rotate(-0 212.588906 45.677812)">instar</text>
    </g>
    <g id="line2d_20">
     <defs>
      <path id="mffa9e7482f" d="M 0 3.535534 
C 0.937635 3.535534 1.836992 3.163008 2.5 2.5 
C 3.163008 1.836992 3.535534 0.937635 3.535534 0 
C 3.535534 -0.937635 3.163008 -1.836992 2.5 -2.5 
C 1.836992 -3.163008 0.937635 -3.535534 0 -3.535534 
C -0.937635 -3.535534 -1.836992 -3.163008 -2.5 -2.5 
C -3.163008 -1.836992 -3.535534 -0.937635 -3.535534 0 
C -3.535534 0.937635 -3.163008 1.836992 -2.5 2.5 
C -1.836992 3.163008 -0.937635 3.535534 0 3.535534 
z
" style="stroke: #ffffff; stroke-width: 0.565685"/>
     </defs>
     <g>
      <use xlink:href="#mffa9e7482f" x="213.529375" y="59.78625" style="fill: #97c7dd; stroke: #ffffff; stroke-width: 0.565685"/>
     </g>
    </g>
    <g id="text_11">
     <text style="font: 14px 'Arial'; text-anchor: start" x="231.029375" y="64.68625" transform="rotate(-0 231.029375 64.68625)">L1</text>
    </g>
    <g id="line2d_21">
     <defs>
      <path id="m74383c262f" d="M 0 3.535534 
C 0.937635 3.535534 1.836992 3.163008 2.5 2.5 
C 3.163008 1.836992 3.535534 0.937635 3.535534 0 
C 3.535534 -0.937635 3.163008 -1.836992 2.5 -2.5 
C 1.836992 -3.163008 0.937635 -3.535534 0 -3.535534 
C -0.937635 -3.535534 -1.836992 -3.163008 -2.5 -2.5 
C -3.163008 -1.836992 -3.535534 -0.937635 -3.535534 0 
C -3.535534 0.937635 -3.163008 1.836992 -2.5 2.5 
C -1.836992 3.163008 -0.937635 3.535534 0 3.535534 
z
" style="stroke: #ffffff; stroke-width: 0.565685"/>
     </defs>
     <g>
      <use xlink:href="#m74383c262f" x="213.529375" y="79.589687" style="fill: #645aa3; stroke: #ffffff; stroke-width: 0.565685"/>
     </g>
    </g>
    <g id="text_12">
     <text style="font: 14px 'Arial'; text-anchor: start" x="231.029375" y="84.489688" transform="rotate(-0 231.029375 84.489688)">L3</text>
    </g>
   </g>
  </g>
 </g>
 <defs>
  <clipPath id="pc8d8c36a82">
   <rect x="36" y="25.92" width="223.2" height="166.32"/>
  </clipPath>
 </defs>
</svg>
