<?xml version="1.0" encoding="utf-8" standalone="no"?>
<!DOCTYPE svg PUBLIC "-//W3C//DTD SVG 1.1//EN"
  "http://www.w3.org/Graphics/SVG/1.1/DTD/svg11.dtd">
<svg xmlns:xlink="http://www.w3.org/1999/xlink" width="216pt" height="216pt" viewBox="0 0 216 216" xmlns="http://www.w3.org/2000/svg" version="1.1">
 <metadata>
  <rdf:RDF xmlns:dc="http://purl.org/dc/elements/1.1/" xmlns:cc="http://creativecommons.org/ns#" xmlns:rdf="http://www.w3.org/1999/02/22-rdf-syntax-ns#">
   <cc:Work>
    <dc:type rdf:resource="http://purl.org/dc/dcmitype/StillImage"/>
    <dc:date>2025-07-07T14:41:55.832562</dc:date>
    <dc:format>image/svg+xml</dc:format>
    <dc:creator>
     <cc:Agent>
      <dc:title>Matplotlib v3.10.3, https://matplotlib.org/</dc:title>
     </cc:Agent>
    </dc:creator>
   </cc:Work>
  </rdf:RDF>
 </metadata>
 <defs>
  <style type="text/css">*{stroke-linejoin: round; stroke-linecap: butt}</style>
 </defs>
 <g id="figure_1">
  <g id="patch_1">
   <path d="M 0 216 
L 216 216 
L 216 0 
L 0 0 
z
" style="fill: #ffffff"/>
  </g>
  <g id="axes_1">
   <g id="patch_2">
    <path d="M 27 192.24 
L 194.4 192.24 
L 194.4 25.92 
L 27 25.92 
z
" style="fill: #ffffff"/>
   </g>
   <g id="PathCollection_1">
    <defs>
     <path id="C0_0_76447987da" d="M 0 3.535534 
C 0.937635 3.535534 1.836992 3.163008 2.5 2.5 
C 3.163008 1.836992 3.535534 0.937635 3.535534 -0 
C 3.535534 -0.937635 3.163008 -1.836992 2.5 -2.5 
C 1.836992 -3.163008 0.937635 -3.535534 0 -3.535534 
C -0.937635 -3.535534 -1.836992 -3.163008 -2.5 -2.5 
C -3.163008 -1.836992 -3.535534 -0.937635 -3.535534 0 
C -3.535534 0.937635 -3.163008 1.836992 -2.5 2.5 
C -1.836992 3.163008 -0.937635 3.535534 0 3.535534 
z
"/>
    </defs>
    <g clip-path="url(#p3321bee25c)">
     <use xlink:href="#C0_0_76447987da" x="120.26323" y="33.48" style="fill: #cd5241; stroke: #ffffff; stroke-width: 0.565685"/>
    </g>
    <g clip-path="url(#p3321bee25c)">
     <use xlink:href="#C0_0_76447987da" x="61.062593" y="86.531751" style="fill: #cd5241; stroke: #ffffff; stroke-width: 0.565685"/>
    </g>
    <g clip-path="url(#p3321bee25c)">
     <use xlink:href="#C0_0_76447987da" x="67.129089" y="164.494905" style="fill: #cd5241; stroke: #ffffff; stroke-width: 0.565685"/>
    </g>
    <g clip-path="url(#p3321bee25c)">
     <use xlink:href="#C0_0_76447987da" x="34.495522" y="174.775668" style="fill: #cd5241; stroke: #ffffff; stroke-width: 0.565685"/>
    </g>
    <g clip-path="url(#p3321bee25c)">
     <use xlink:href="#C0_0_76447987da" x="83.445873" y="179.577261" style="fill: #cd5241; stroke: #ffffff; stroke-width: 0.565685"/>
    </g>
    <g clip-path="url(#p3321bee25c)">
     <use xlink:href="#C0_0_76447987da" x="34.495522" y="179.727834" style="fill: #cd5241; stroke: #ffffff; stroke-width: 0.565685"/>
    </g>
    <g clip-path="url(#p3321bee25c)">
     <use xlink:href="#C0_0_76447987da" x="61.062593" y="86.531751" style="fill: #cd5241; stroke: #ffffff; stroke-width: 0.565685"/>
    </g>
    <g clip-path="url(#p3321bee25c)">
     <use xlink:href="#C0_0_76447987da" x="120.26323" y="33.48" style="fill: #cd5241; stroke: #ffffff; stroke-width: 0.565685"/>
    </g>
    <g clip-path="url(#p3321bee25c)">
     <use xlink:href="#C0_0_76447987da" x="34.495522" y="174.775668" style="fill: #cd5241; stroke: #ffffff; stroke-width: 0.565685"/>
    </g>
    <g clip-path="url(#p3321bee25c)">
     <use xlink:href="#C0_0_76447987da" x="67.129089" y="164.494905" style="fill: #cd5241; stroke: #ffffff; stroke-width: 0.565685"/>
    </g>
    <g clip-path="url(#p3321bee25c)">
     <use xlink:href="#C0_0_76447987da" x="34.495522" y="179.727834" style="fill: #cd5241; stroke: #ffffff; stroke-width: 0.565685"/>
    </g>
    <g clip-path="url(#p3321bee25c)">
     <use xlink:href="#C0_0_76447987da" x="83.445873" y="179.577261" style="fill: #cd5241; stroke: #ffffff; stroke-width: 0.565685"/>
    </g>
    <g clip-path="url(#p3321bee25c)">
     <use xlink:href="#C0_0_76447987da" x="184.40597" y="82.475894" style="fill: #cd5241; stroke: #ffffff; stroke-width: 0.565685"/>
    </g>
    <g clip-path="url(#p3321bee25c)">
     <use xlink:href="#C0_0_76447987da" x="84.465672" y="83.498545" style="fill: #cd5241; stroke: #ffffff; stroke-width: 0.565685"/>
    </g>
    <g clip-path="url(#p3321bee25c)">
     <use xlink:href="#C0_0_76447987da" x="104.453731" y="182.497326" style="fill: #cd5241; stroke: #ffffff; stroke-width: 0.565685"/>
    </g>
    <g clip-path="url(#p3321bee25c)">
     <use xlink:href="#C0_0_76447987da" x="44.489552" y="168.943376" style="fill: #cd5241; stroke: #ffffff; stroke-width: 0.565685"/>
    </g>
    <g clip-path="url(#p3321bee25c)">
     <use xlink:href="#C0_0_76447987da" x="64.477612" y="179.398844" style="fill: #cd5241; stroke: #ffffff; stroke-width: 0.565685"/>
    </g>
    <g clip-path="url(#p3321bee25c)">
     <use xlink:href="#C0_0_76447987da" x="44.489552" y="182.497326" style="fill: #cd5241; stroke: #ffffff; stroke-width: 0.565685"/>
    </g>
    <g clip-path="url(#p3321bee25c)">
     <use xlink:href="#C0_0_76447987da" x="84.465672" y="83.498545" style="fill: #cd5241; stroke: #ffffff; stroke-width: 0.565685"/>
    </g>
    <g clip-path="url(#p3321bee25c)">
     <use xlink:href="#C0_0_76447987da" x="184.40597" y="82.475894" style="fill: #cd5241; stroke: #ffffff; stroke-width: 0.565685"/>
    </g>
    <g clip-path="url(#p3321bee25c)">
     <use xlink:href="#C0_0_76447987da" x="44.489552" y="168.943376" style="fill: #cd5241; stroke: #ffffff; stroke-width: 0.565685"/>
    </g>
    <g clip-path="url(#p3321bee25c)">
     <use xlink:href="#C0_0_76447987da" x="104.453731" y="182.497326" style="fill: #cd5241; stroke: #ffffff; stroke-width: 0.565685"/>
    </g>
    <g clip-path="url(#p3321bee25c)">
     <use xlink:href="#C0_0_76447987da" x="44.489552" y="182.497326" style="fill: #cd5241; stroke: #ffffff; stroke-width: 0.565685"/>
    </g>
    <g clip-path="url(#p3321bee25c)">
     <use xlink:href="#C0_0_76447987da" x="64.477612" y="179.398844" style="fill: #cd5241; stroke: #ffffff; stroke-width: 0.565685"/>
    </g>
    <g clip-path="url(#p3321bee25c)">
     <use xlink:href="#C0_0_76447987da" x="61.216146" y="106.988304" style="fill: #ee8329; stroke: #ffffff; stroke-width: 0.565685"/>
    </g>
    <g clip-path="url(#p3321bee25c)">
     <use xlink:href="#C0_0_76447987da" x="34.495522" y="163.843716" style="fill: #ee8329; stroke: #ffffff; stroke-width: 0.565685"/>
    </g>
    <g clip-path="url(#p3321bee25c)">
     <use xlink:href="#C0_0_76447987da" x="93.739657" y="122.631568" style="fill: #ee8329; stroke: #ffffff; stroke-width: 0.565685"/>
    </g>
    <g clip-path="url(#p3321bee25c)">
     <use xlink:href="#C0_0_76447987da" x="34.495522" y="184.68" style="fill: #ee8329; stroke: #ffffff; stroke-width: 0.565685"/>
    </g>
    <g clip-path="url(#p3321bee25c)">
     <use xlink:href="#C0_0_76447987da" x="42.045352" y="178.062919" style="fill: #ee8329; stroke: #ffffff; stroke-width: 0.565685"/>
    </g>
    <g clip-path="url(#p3321bee25c)">
     <use xlink:href="#C0_0_76447987da" x="34.495522" y="184.20353" style="fill: #ee8329; stroke: #ffffff; stroke-width: 0.565685"/>
    </g>
    <g clip-path="url(#p3321bee25c)">
     <use xlink:href="#C0_0_76447987da" x="34.495522" y="163.843716" style="fill: #ee8329; stroke: #ffffff; stroke-width: 0.565685"/>
    </g>
    <g clip-path="url(#p3321bee25c)">
     <use xlink:href="#C0_0_76447987da" x="61.216146" y="106.988304" style="fill: #ee8329; stroke: #ffffff; stroke-width: 0.565685"/>
    </g>
    <g clip-path="url(#p3321bee25c)">
     <use xlink:href="#C0_0_76447987da" x="34.495522" y="184.68" style="fill: #ee8329; stroke: #ffffff; stroke-width: 0.565685"/>
    </g>
    <g clip-path="url(#p3321bee25c)">
     <use xlink:href="#C0_0_76447987da" x="93.739657" y="122.631568" style="fill: #ee8329; stroke: #ffffff; stroke-width: 0.565685"/>
    </g>
    <g clip-path="url(#p3321bee25c)">
     <use xlink:href="#C0_0_76447987da" x="34.495522" y="184.20353" style="fill: #ee8329; stroke: #ffffff; stroke-width: 0.565685"/>
    </g>
    <g clip-path="url(#p3321bee25c)">
     <use xlink:href="#C0_0_76447987da" x="42.045352" y="178.062919" style="fill: #ee8329; stroke: #ffffff; stroke-width: 0.565685"/>
    </g>
    <g clip-path="url(#p3321bee25c)">
     <use xlink:href="#C0_0_76447987da" x="65.681752" y="172.168501" style="fill: #ee8329; stroke: #ffffff; stroke-width: 0.565685"/>
    </g>
    <g clip-path="url(#p3321bee25c)">
     <use xlink:href="#C0_0_76447987da" x="34.495522" y="183.314348" style="fill: #ee8329; stroke: #ffffff; stroke-width: 0.565685"/>
    </g>
    <g clip-path="url(#p3321bee25c)">
     <use xlink:href="#C0_0_76447987da" x="148.322393" y="104.479354" style="fill: #ee8329; stroke: #ffffff; stroke-width: 0.565685"/>
    </g>
    <g clip-path="url(#p3321bee25c)">
     <use xlink:href="#C0_0_76447987da" x="34.495522" y="176.265456" style="fill: #ee8329; stroke: #ffffff; stroke-width: 0.565685"/>
    </g>
    <g clip-path="url(#p3321bee25c)">
     <use xlink:href="#C0_0_76447987da" x="147.84437" y="103.040158" style="fill: #ee8329; stroke: #ffffff; stroke-width: 0.565685"/>
    </g>
    <g clip-path="url(#p3321bee25c)">
     <use xlink:href="#C0_0_76447987da" x="61.723721" y="138.103293" style="fill: #ee8329; stroke: #ffffff; stroke-width: 0.565685"/>
    </g>
    <g clip-path="url(#p3321bee25c)">
     <use xlink:href="#C0_0_76447987da" x="34.495522" y="183.314348" style="fill: #ee8329; stroke: #ffffff; stroke-width: 0.565685"/>
    </g>
    <g clip-path="url(#p3321bee25c)">
     <use xlink:href="#C0_0_76447987da" x="65.681752" y="172.168501" style="fill: #ee8329; stroke: #ffffff; stroke-width: 0.565685"/>
    </g>
    <g clip-path="url(#p3321bee25c)">
     <use xlink:href="#C0_0_76447987da" x="34.495522" y="176.265456" style="fill: #ee8329; stroke: #ffffff; stroke-width: 0.565685"/>
    </g>
    <g clip-path="url(#p3321bee25c)">
     <use xlink:href="#C0_0_76447987da" x="148.322393" y="104.479354" style="fill: #ee8329; stroke: #ffffff; stroke-width: 0.565685"/>
    </g>
    <g clip-path="url(#p3321bee25c)">
     <use xlink:href="#C0_0_76447987da" x="61.723721" y="138.103293" style="fill: #ee8329; stroke: #ffffff; stroke-width: 0.565685"/>
    </g>
    <g clip-path="url(#p3321bee25c)">
     <use xlink:href="#C0_0_76447987da" x="147.84437" y="103.040158" style="fill: #ee8329; stroke: #ffffff; stroke-width: 0.565685"/>
    </g>
    <g clip-path="url(#p3321bee25c)">
     <use xlink:href="#C0_0_76447987da" x="111.246543" y="107.504312" style="fill: #eede7b; stroke: #ffffff; stroke-width: 0.565685"/>
    </g>
    <g clip-path="url(#p3321bee25c)">
     <use xlink:href="#C0_0_76447987da" x="44.574547" y="162.241395" style="fill: #eede7b; stroke: #ffffff; stroke-width: 0.565685"/>
    </g>
    <g clip-path="url(#p3321bee25c)">
     <use xlink:href="#C0_0_76447987da" x="177.918538" y="102.623664" style="fill: #eede7b; stroke: #ffffff; stroke-width: 0.565685"/>
    </g>
    <g clip-path="url(#p3321bee25c)">
     <use xlink:href="#C0_0_76447987da" x="34.495522" y="184.68" style="fill: #eede7b; stroke: #ffffff; stroke-width: 0.565685"/>
    </g>
    <g clip-path="url(#p3321bee25c)">
     <use xlink:href="#C0_0_76447987da" x="160.137334" y="85.368312" style="fill: #eede7b; stroke: #ffffff; stroke-width: 0.565685"/>
    </g>
    <g clip-path="url(#p3321bee25c)">
     <use xlink:href="#C0_0_76447987da" x="77.940631" y="145.841132" style="fill: #eede7b; stroke: #ffffff; stroke-width: 0.565685"/>
    </g>
    <g clip-path="url(#p3321bee25c)">
     <use xlink:href="#C0_0_76447987da" x="44.574547" y="162.241395" style="fill: #eede7b; stroke: #ffffff; stroke-width: 0.565685"/>
    </g>
    <g clip-path="url(#p3321bee25c)">
     <use xlink:href="#C0_0_76447987da" x="111.246543" y="107.504312" style="fill: #eede7b; stroke: #ffffff; stroke-width: 0.565685"/>
    </g>
    <g clip-path="url(#p3321bee25c)">
     <use xlink:href="#C0_0_76447987da" x="34.495522" y="184.68" style="fill: #eede7b; stroke: #ffffff; stroke-width: 0.565685"/>
    </g>
    <g clip-path="url(#p3321bee25c)">
     <use xlink:href="#C0_0_76447987da" x="177.918538" y="102.623664" style="fill: #eede7b; stroke: #ffffff; stroke-width: 0.565685"/>
    </g>
    <g clip-path="url(#p3321bee25c)">
     <use xlink:href="#C0_0_76447987da" x="77.940631" y="145.841132" style="fill: #eede7b; stroke: #ffffff; stroke-width: 0.565685"/>
    </g>
    <g clip-path="url(#p3321bee25c)">
     <use xlink:href="#C0_0_76447987da" x="160.137334" y="85.368312" style="fill: #eede7b; stroke: #ffffff; stroke-width: 0.565685"/>
    </g>
    <g clip-path="url(#p3321bee25c)">
     <use xlink:href="#C0_0_76447987da" x="42.183238" y="140.199337" style="fill: #eede7b; stroke: #ffffff; stroke-width: 0.565685"/>
    </g>
    <g clip-path="url(#p3321bee25c)">
     <use xlink:href="#C0_0_76447987da" x="103.318878" y="82.104754" style="fill: #eede7b; stroke: #ffffff; stroke-width: 0.565685"/>
    </g>
    <g clip-path="url(#p3321bee25c)">
     <use xlink:href="#C0_0_76447987da" x="34.495522" y="184.68" style="fill: #eede7b; stroke: #ffffff; stroke-width: 0.565685"/>
    </g>
    <g clip-path="url(#p3321bee25c)">
     <use xlink:href="#C0_0_76447987da" x="118.547876" y="166.723653" style="fill: #eede7b; stroke: #ffffff; stroke-width: 0.565685"/>
    </g>
    <g clip-path="url(#p3321bee25c)">
     <use xlink:href="#C0_0_76447987da" x="65.026734" y="106.871369" style="fill: #eede7b; stroke: #ffffff; stroke-width: 0.565685"/>
    </g>
    <g clip-path="url(#p3321bee25c)">
     <use xlink:href="#C0_0_76447987da" x="149.005872" y="55.040116" style="fill: #eede7b; stroke: #ffffff; stroke-width: 0.565685"/>
    </g>
    <g clip-path="url(#p3321bee25c)">
     <use xlink:href="#C0_0_76447987da" x="103.318878" y="82.104754" style="fill: #eede7b; stroke: #ffffff; stroke-width: 0.565685"/>
    </g>
    <g clip-path="url(#p3321bee25c)">
     <use xlink:href="#C0_0_76447987da" x="42.183238" y="140.199337" style="fill: #eede7b; stroke: #ffffff; stroke-width: 0.565685"/>
    </g>
    <g clip-path="url(#p3321bee25c)">
     <use xlink:href="#C0_0_76447987da" x="118.547876" y="166.723653" style="fill: #eede7b; stroke: #ffffff; stroke-width: 0.565685"/>
    </g>
    <g clip-path="url(#p3321bee25c)">
     <use xlink:href="#C0_0_76447987da" x="34.495522" y="184.68" style="fill: #eede7b; stroke: #ffffff; stroke-width: 0.565685"/>
    </g>
    <g clip-path="url(#p3321bee25c)">
     <use xlink:href="#C0_0_76447987da" x="149.005872" y="55.040116" style="fill: #eede7b; stroke: #ffffff; stroke-width: 0.565685"/>
    </g>
    <g clip-path="url(#p3321bee25c)">
     <use xlink:href="#C0_0_76447987da" x="65.026734" y="106.871369" style="fill: #eede7b; stroke: #ffffff; stroke-width: 0.565685"/>
    </g>
   </g>
   <g id="matplotlib.axis_1">
    <g id="xtick_1">
     <g id="line2d_1">
      <defs>
       <path id="m1e0b0e53d9" d="M 0 0 
L 0 6 
" style="stroke: #d3d3d3; stroke-width: 2"/>
      </defs>
      <g>
       <use xlink:href="#m1e0b0e53d9" x="34.495522" y="192.24" style="fill: #d3d3d3; stroke: #d3d3d3; stroke-width: 2"/>
      </g>
     </g>
     <g id="text_1">
      <text style="font-size: 14px; font-family: 'Arial'; text-anchor: middle" x="34.495522" y="211.760938" transform="rotate(-0 34.495522 211.760938)">0</text>
     </g>
    </g>
    <g id="xtick_2">
     <g id="line2d_2">
      <g>
       <use xlink:href="#m1e0b0e53d9" x="66.476418" y="192.24" style="fill: #d3d3d3; stroke: #d3d3d3; stroke-width: 2"/>
      </g>
     </g>
     <g id="text_2">
      <text style="font-size: 14px; font-family: 'Arial'; text-anchor: middle" x="66.476418" y="211.760938" transform="rotate(-0 66.476418 211.760938)">2</text>
     </g>
    </g>
    <g id="xtick_3">
     <g id="line2d_3">
      <g>
       <use xlink:href="#m1e0b0e53d9" x="98.457313" y="192.24" style="fill: #d3d3d3; stroke: #d3d3d3; stroke-width: 2"/>
      </g>
     </g>
     <g id="text_3">
      <text style="font-size: 14px; font-family: 'Arial'; text-anchor: middle" x="98.457313" y="211.760938" transform="rotate(-0 98.457313 211.760938)">4</text>
     </g>
    </g>
    <g id="xtick_4">
     <g id="line2d_4">
      <g>
       <use xlink:href="#m1e0b0e53d9" x="130.438209" y="192.24" style="fill: #d3d3d3; stroke: #d3d3d3; stroke-width: 2"/>
      </g>
     </g>
     <g id="text_4">
      <text style="font-size: 14px; font-family: 'Arial'; text-anchor: middle" x="130.438209" y="211.760938" transform="rotate(-0 130.438209 211.760938)">6</text>
     </g>
    </g>
    <g id="xtick_5">
     <g id="line2d_5">
      <g>
       <use xlink:href="#m1e0b0e53d9" x="162.419104" y="192.24" style="fill: #d3d3d3; stroke: #d3d3d3; stroke-width: 2"/>
      </g>
     </g>
     <g id="text_5">
      <text style="font-size: 14px; font-family: 'Arial'; text-anchor: middle" x="162.419104" y="211.760938" transform="rotate(-0 162.419104 211.760938)">8</text>
     </g>
    </g>
    <g id="xtick_6">
     <g id="line2d_6">
      <g>
       <use xlink:href="#m1e0b0e53d9" x="194.4" y="192.24" style="fill: #d3d3d3; stroke: #d3d3d3; stroke-width: 2"/>
      </g>
     </g>
     <g id="text_6">
      <text style="font-size: 14px; font-family: 'Arial'; text-anchor: middle" x="194.4" y="211.760938" transform="rotate(-0 194.4 211.760938)">10</text>
     </g>
    </g>
    <g id="text_7">
     <text style="font-size: 18px; font-family: 'Arial'; text-anchor: middle" x="110.7" y="231.646875" transform="rotate(-0 110.7 231.646875)">L1 relative connectivity (%)</text>
    </g>
   </g>
   <g id="matplotlib.axis_2">
    <g id="ytick_1">
     <g id="line2d_7">
      <defs>
       <path id="m665dd2635e" d="M 0 0 
L -6 0 
" style="stroke: #d3d3d3; stroke-width: 2"/>
      </defs>
      <g>
       <use xlink:href="#m665dd2635e" x="27" y="184.68" style="fill: #d3d3d3; stroke: #d3d3d3; stroke-width: 2"/>
      </g>
     </g>
     <g id="text_8">
      <text style="font-size: 14px; font-family: 'Arial'; text-anchor: end" x="17.5" y="189.690469" transform="rotate(-0 17.5 189.690469)">0</text>
     </g>
    </g>
    <g id="ytick_2">
     <g id="line2d_8">
      <g>
       <use xlink:href="#m665dd2635e" x="27" y="154.471788" style="fill: #d3d3d3; stroke: #d3d3d3; stroke-width: 2"/>
      </g>
     </g>
     <g id="text_9">
      <text style="font-size: 14px; font-family: 'Arial'; text-anchor: end" x="17.5" y="159.482256" transform="rotate(-0 17.5 159.482256)">2</text>
     </g>
    </g>
    <g id="ytick_3">
     <g id="line2d_9">
      <g>
       <use xlink:href="#m665dd2635e" x="27" y="124.263575" style="fill: #d3d3d3; stroke: #d3d3d3; stroke-width: 2"/>
      </g>
     </g>
     <g id="text_10">
      <text style="font-size: 14px; font-family: 'Arial'; text-anchor: end" x="17.5" y="129.274044" transform="rotate(-0 17.5 129.274044)">4</text>
     </g>
    </g>
    <g id="ytick_4">
     <g id="line2d_10">
      <g>
       <use xlink:href="#m665dd2635e" x="27" y="94.055363" style="fill: #d3d3d3; stroke: #d3d3d3; stroke-width: 2"/>
      </g>
     </g>
     <g id="text_11">
      <text style="font-size: 14px; font-family: 'Arial'; text-anchor: end" x="17.5" y="99.065831" transform="rotate(-0 17.5 99.065831)">6</text>
     </g>
    </g>
    <g id="ytick_5">
     <g id="line2d_11">
      <g>
       <use xlink:href="#m665dd2635e" x="27" y="63.84715" style="fill: #d3d3d3; stroke: #d3d3d3; stroke-width: 2"/>
      </g>
     </g>
     <g id="text_12">
      <text style="font-size: 14px; font-family: 'Arial'; text-anchor: end" x="17.5" y="68.857619" transform="rotate(-0 17.5 68.857619)">8</text>
     </g>
    </g>
    <g id="ytick_6">
     <g id="line2d_12">
      <g>
       <use xlink:href="#m665dd2635e" x="27" y="33.638938" style="fill: #d3d3d3; stroke: #d3d3d3; stroke-width: 2"/>
      </g>
     </g>
     <g id="text_13">
      <text style="font-size: 14px; font-family: 'Arial'; text-anchor: end" x="17.5" y="38.649407" transform="rotate(-0 17.5 38.649407)">10</text>
     </g>
    </g>
    <g id="text_14">
     <text style="font-size: 18px; font-family: 'Arial'; text-anchor: middle" x="-5.859063" y="109.08" transform="rotate(-90 -5.859063 109.08)">L3 relative connectivity (%)</text>
    </g>
   </g>
   <g id="line2d_13"/>
   <g id="line2d_14"/>
   <g id="line2d_15"/>
   <g id="line2d_16">
    <path d="M 34.495522 184.68 
L 36.009769 183.509646 
L 37.524016 182.339293 
L 39.038263 181.168939 
L 40.55251 179.998586 
L 42.066757 178.828232 
L 43.581004 177.657878 
L 45.095251 176.487525 
L 46.609498 175.317171 
L 48.123745 174.146818 
L 49.637992 172.976464 
L 51.152239 171.80611 
L 52.666486 170.635757 
L 54.180733 169.465403 
L 55.69498 168.29505 
L 57.209227 167.124696 
L 58.723474 165.954342 
L 60.23772 164.783989 
L 61.751967 163.613635 
L 63.266214 162.443281 
L 64.780461 161.272928 
L 66.294708 160.102574 
L 67.808955 158.932221 
L 69.323202 157.761867 
L 70.837449 156.591513 
L 72.351696 155.42116 
L 73.865943 154.250806 
L 75.38019 153.080453 
L 76.894437 151.910099 
L 78.408684 150.739745 
L 79.922931 149.569392 
L 81.437178 148.399038 
L 82.951425 147.228685 
L 84.465672 146.058331 
L 85.979919 144.887977 
L 87.494166 143.717624 
L 89.008412 142.54727 
L 90.522659 141.376917 
L 92.036906 140.206563 
L 93.551153 139.036209 
L 95.0654 137.865856 
L 96.579647 136.695502 
L 98.093894 135.525149 
L 99.608141 134.354795 
L 101.122388 133.184441 
L 102.636635 132.014088 
L 104.150882 130.843734 
L 105.665129 129.673381 
L 107.179376 128.503027 
L 108.693623 127.332673 
L 110.20787 126.16232 
L 111.722117 124.991966 
L 113.236364 123.821613 
L 114.750611 122.651259 
L 116.264858 121.480905 
L 117.779104 120.310552 
L 119.293351 119.140198 
L 120.807598 117.969844 
L 122.321845 116.799491 
L 123.836092 115.629137 
L 125.350339 114.458784 
L 126.864586 113.28843 
L 128.378833 112.118076 
L 129.89308 110.947723 
L 131.407327 109.777369 
L 132.921574 108.607016 
L 134.435821 107.436662 
L 135.950068 106.266308 
L 137.464315 105.095955 
L 138.978562 103.925601 
L 140.492809 102.755248 
L 142.007056 101.584894 
L 143.521303 100.41454 
L 145.03555 99.244187 
L 146.549796 98.073833 
L 148.064043 96.90348 
L 149.57829 95.733126 
L 151.092537 94.562772 
L 152.606784 93.392419 
L 154.121031 92.222065 
L 155.635278 91.051712 
L 157.149525 89.881358 
L 158.663772 88.711004 
L 160.178019 87.540651 
L 161.692266 86.370297 
L 163.206513 85.199944 
L 164.72076 84.02959 
L 166.235007 82.859236 
L 167.749254 81.688883 
L 169.263501 80.518529 
L 170.777748 79.348176 
L 172.291995 78.177822 
L 173.806242 77.007468 
L 175.320488 75.837115 
L 176.834735 74.666761 
L 178.348982 73.496407 
L 179.863229 72.326054 
L 181.377476 71.1557 
L 182.891723 69.985347 
L 184.40597 68.814993 
" clip-path="url(#p3321bee25c)" style="fill: none; stroke: #000000; stroke-width: 2; stroke-linecap: square"/>
   </g>
   <g id="patch_3">
    <path d="M 27 192.24 
L 27 25.92 
" style="fill: none; stroke: #d3d3d3; stroke-width: 2; stroke-linejoin: miter; stroke-linecap: square"/>
   </g>
   <g id="patch_4">
    <path d="M 27 192.24 
L 194.4 192.24 
" style="fill: none; stroke: #d3d3d3; stroke-width: 2; stroke-linejoin: miter; stroke-linecap: square"/>
   </g>
   <g id="text_15">
    <text style="font-size: 12px; font-family: 'Arial'; text-anchor: start" x="35.37" y="42.825375" transform="rotate(-0 35.37 42.825375)">r = 0.71</text>
   </g>
   <g id="legend_1">
    <g id="patch_5">
     <path d="M 36.8 112.792812 
L 103.866563 112.792812 
Q 106.666562 112.792812 106.666562 109.992812 
L 106.666562 35.72 
Q 106.666562 32.92 103.866563 32.92 
L 36.8 32.92 
Q 34 32.92 34 35.72 
L 34 109.992812 
Q 34 112.792812 36.8 112.792812 
z
" style="fill: #ffffff; opacity: 0.8; stroke: #d3d3d3; stroke-linejoin: miter"/>
    </g>
    <g id="text_16">
     <text style="font-size: 10px; font-family: 'Arial'; text-anchor: start" x="42.535625" y="45.677812" transform="rotate(-0 42.535625 45.677812)">neuron_type</text>
    </g>
    <g id="line2d_17">
     <defs>
      <path id="m6d5afca0eb" d="M 0 3.535534 
C 0.937635 3.535534 1.836992 3.163008 2.5 2.5 
C 3.163008 1.836992 3.535534 0.937635 3.535534 0 
C 3.535534 -0.937635 3.163008 -1.836992 2.5 -2.5 
C 1.836992 -3.163008 0.937635 -3.535534 0 -3.535534 
C -0.937635 -3.535534 -1.836992 -3.163008 -2.5 -2.5 
C -3.163008 -1.836992 -3.535534 -0.937635 -3.535534 0 
C -3.535534 0.937635 -3.163008 1.836992 -2.5 2.5 
C -1.836992 3.163008 -0.937635 3.535534 0 3.535534 
z
" style="stroke: #ffffff; stroke-width: 0.565685"/>
     </defs>
     <g>
      <use xlink:href="#m6d5afca0eb" x="50.1" y="59.903438" style="fill: #cd5241; stroke: #ffffff; stroke-width: 0.565685"/>
     </g>
    </g>
    <g id="text_17">
     <text style="font-size: 14px; font-family: 'Arial'; text-anchor: start" x="67.6" y="64.803438" transform="rotate(-0 67.6 64.803438)">ddaC</text>
    </g>
    <g id="line2d_18">
     <defs>
      <path id="mb304fd82c2" d="M 0 3.535534 
C 0.937635 3.535534 1.836992 3.163008 2.5 2.5 
C 3.163008 1.836992 3.535534 0.937635 3.535534 0 
C 3.535534 -0.937635 3.163008 -1.836992 2.5 -2.5 
C 1.836992 -3.163008 0.937635 -3.535534 0 -3.535534 
C -0.937635 -3.535534 -1.836992 -3.163008 -2.5 -2.5 
C -3.163008 -1.836992 -3.535534 -0.937635 -3.535534 0 
C -3.535534 0.937635 -3.163008 1.836992 -2.5 2.5 
C -1.836992 3.163008 -0.937635 3.535534 0 3.535534 
z
" style="stroke: #ffffff; stroke-width: 0.565685"/>
     </defs>
     <g>
      <use xlink:href="#mb304fd82c2" x="50.1" y="79.706875" style="fill: #ee8329; stroke: #ffffff; stroke-width: 0.565685"/>
     </g>
    </g>
    <g id="text_18">
     <text style="font-size: 14px; font-family: 'Arial'; text-anchor: start" x="67.6" y="84.606875" transform="rotate(-0 67.6 84.606875)">v'ada</text>
    </g>
    <g id="line2d_19">
     <defs>
      <path id="mca9490993d" d="M 0 3.535534 
C 0.937635 3.535534 1.836992 3.163008 2.5 2.5 
C 3.163008 1.836992 3.535534 0.937635 3.535534 0 
C 3.535534 -0.937635 3.163008 -1.836992 2.5 -2.5 
C 1.836992 -3.163008 0.937635 -3.535534 0 -3.535534 
C -0.937635 -3.535534 -1.836992 -3.163008 -2.5 -2.5 
C -3.163008 -1.836992 -3.535534 -0.937635 -3.535534 0 
C -3.535534 0.937635 -3.163008 1.836992 -2.5 2.5 
C -1.836992 3.163008 -0.937635 3.535534 0 3.535534 
z
" style="stroke: #ffffff; stroke-width: 0.565685"/>
     </defs>
     <g>
      <use xlink:href="#mca9490993d" x="50.1" y="99.510312" style="fill: #eede7b; stroke: #ffffff; stroke-width: 0.565685"/>
     </g>
    </g>
    <g id="text_19">
     <text style="font-size: 14px; font-family: 'Arial'; text-anchor: start" x="67.6" y="104.410313" transform="rotate(-0 67.6 104.410313)">vdaB</text>
    </g>
   </g>
  </g>
 </g>
 <defs>
  <clipPath id="p3321bee25c">
   <rect x="27" y="25.92" width="167.4" height="166.32"/>
  </clipPath>
 </defs>
</svg>
