<?xml version="1.0" encoding="utf-8" standalone="no"?>
<!DOCTYPE svg PUBLIC "-//W3C//DTD SVG 1.1//EN"
  "http://www.w3.org/Graphics/SVG/1.1/DTD/svg11.dtd">
<svg xmlns:xlink="http://www.w3.org/1999/xlink" width="288pt" height="288pt" viewBox="0 0 288 288" xmlns="http://www.w3.org/2000/svg" version="1.1">
 <metadata>
  <rdf:RDF xmlns:dc="http://purl.org/dc/elements/1.1/" xmlns:cc="http://creativecommons.org/ns#" xmlns:rdf="http://www.w3.org/1999/02/22-rdf-syntax-ns#">
   <cc:Work>
    <dc:type rdf:resource="http://purl.org/dc/dcmitype/StillImage"/>
    <dc:date>2025-07-02T15:08:30.330650</dc:date>
    <dc:format>image/svg+xml</dc:format>
    <dc:creator>
     <cc:Agent>
      <dc:title>Matplotlib v3.9.2, https://matplotlib.org/</dc:title>
     </cc:Agent>
    </dc:creator>
   </cc:Work>
  </rdf:RDF>
 </metadata>
 <defs>
  <style type="text/css">*{stroke-linejoin: round; stroke-linecap: butt}</style>
 </defs>
 <g id="figure_1">
  <g id="patch_1">
   <path d="M 0 288 
L 288 288 
L 288 0 
L 0 0 
z
" style="fill: #ffffff"/>
  </g>
  <g id="axes_1">
   <g id="patch_2">
    <path d="M 36 256.32 
L 259.2 256.32 
L 259.2 34.56 
L 36 34.56 
z
" style="fill: #ffffff"/>
   </g>
   <g id="PathCollection_1">
    <defs>
     <path id="m53df006e83" d="M 0 3 
C 0.795609 3 1.55874 2.683901 2.12132 2.12132 
C 2.683901 1.55874 3 0.795609 3 0 
C 3 -0.795609 2.683901 -1.55874 2.12132 -2.12132 
C 1.55874 -2.683901 0.795609 -3 0 -3 
C -0.795609 -3 -1.55874 -2.683901 -2.12132 -2.12132 
C -2.683901 -1.55874 -3 -0.795609 -3 0 
C -3 0.795609 -2.683901 1.55874 -2.12132 2.12132 
C -1.55874 2.683901 -0.795609 3 0 3 
z
" style="stroke: #ffffff; stroke-width: 0.48"/>
    </defs>
    <g clip-path="url(#paae0ff2355)">
     <use xlink:href="#m53df006e83" x="91.80339" y="92.42609" style="fill: #df5b5f; stroke: #ffffff; stroke-width: 0.48"/>
     <use xlink:href="#m53df006e83" x="46.145455" y="246.24" style="fill: #df5b5f; stroke: #ffffff; stroke-width: 0.48"/>
     <use xlink:href="#m53df006e83" x="212.988077" y="104.495603" style="fill: #df5b5f; stroke: #ffffff; stroke-width: 0.48"/>
     <use xlink:href="#m53df006e83" x="249.054545" y="116.326101" style="fill: #df5b5f; stroke: #ffffff; stroke-width: 0.48"/>
     <use xlink:href="#m53df006e83" x="76.197486" y="95.724155" style="fill: #df5b5f; stroke: #ffffff; stroke-width: 0.48"/>
     <use xlink:href="#m53df006e83" x="125.625709" y="44.64" style="fill: #df5b5f; stroke: #ffffff; stroke-width: 0.48"/>
    </g>
   </g>
   <g id="matplotlib.axis_1">
    <g id="xtick_1">
     <g id="line2d_1">
      <defs>
       <path id="m85af2b4c70" d="M 0 0 
L 0 6 
" style="stroke: #d3d3d3; stroke-width: 2"/>
      </defs>
      <g>
       <use xlink:href="#m85af2b4c70" x="54.989543" y="256.32" style="fill: #d3d3d3; stroke: #d3d3d3; stroke-width: 2"/>
      </g>
     </g>
     <g id="text_1">
      <text style="font: 14px 'Arial'; text-anchor: middle" x="54.989543" y="275.840937" transform="rotate(-0 54.989543 275.840937)">3.0</text>
     </g>
    </g>
    <g id="xtick_2">
     <g id="line2d_2">
      <g>
       <use xlink:href="#m85af2b4c70" x="108.873063" y="256.32" style="fill: #d3d3d3; stroke: #d3d3d3; stroke-width: 2"/>
      </g>
     </g>
     <g id="text_2">
      <text style="font: 14px 'Arial'; text-anchor: middle" x="108.873063" y="275.840937" transform="rotate(-0 108.873063 275.840937)">3.5</text>
     </g>
    </g>
    <g id="xtick_3">
     <g id="line2d_3">
      <g>
       <use xlink:href="#m85af2b4c70" x="162.756583" y="256.32" style="fill: #d3d3d3; stroke: #d3d3d3; stroke-width: 2"/>
      </g>
     </g>
     <g id="text_3">
      <text style="font: 14px 'Arial'; text-anchor: middle" x="162.756583" y="275.840937" transform="rotate(-0 162.756583 275.840937)">4.0</text>
     </g>
    </g>
    <g id="xtick_4">
     <g id="line2d_4">
      <g>
       <use xlink:href="#m85af2b4c70" x="216.640103" y="256.32" style="fill: #d3d3d3; stroke: #d3d3d3; stroke-width: 2"/>
      </g>
     </g>
     <g id="text_4">
      <text style="font: 14px 'Arial'; text-anchor: middle" x="216.640103" y="275.840937" transform="rotate(-0 216.640103 275.840937)">4.5</text>
     </g>
    </g>
    <g id="text_5">
     <text style="font: 18px 'Arial'; text-anchor: middle" x="147.6" y="295.726875" transform="rotate(-0 147.6 295.726875)">Axonal cable fold change</text>
    </g>
   </g>
   <g id="matplotlib.axis_2">
    <g id="ytick_1">
     <g id="line2d_5">
      <defs>
       <path id="m61dbd57494" d="M 0 0 
L -6 0 
" style="stroke: #d3d3d3; stroke-width: 2"/>
      </defs>
      <g>
       <use xlink:href="#m61dbd57494" x="36" y="225.647917" style="fill: #d3d3d3; stroke: #d3d3d3; stroke-width: 2"/>
      </g>
     </g>
     <g id="text_6">
      <text style="font: 14px 'Arial'; text-anchor: end" x="26.5" y="230.658385" transform="rotate(-0 26.5 230.658385)">3</text>
     </g>
    </g>
    <g id="ytick_2">
     <g id="line2d_6">
      <g>
       <use xlink:href="#m61dbd57494" x="36" y="171.929438" style="fill: #d3d3d3; stroke: #d3d3d3; stroke-width: 2"/>
      </g>
     </g>
     <g id="text_7">
      <text style="font: 14px 'Arial'; text-anchor: end" x="26.5" y="176.939907" transform="rotate(-0 26.5 176.939907)">4</text>
     </g>
    </g>
    <g id="ytick_3">
     <g id="line2d_7">
      <g>
       <use xlink:href="#m61dbd57494" x="36" y="118.21096" style="fill: #d3d3d3; stroke: #d3d3d3; stroke-width: 2"/>
      </g>
     </g>
     <g id="text_8">
      <text style="font: 14px 'Arial'; text-anchor: end" x="26.5" y="123.221428" transform="rotate(-0 26.5 123.221428)">5</text>
     </g>
    </g>
    <g id="ytick_4">
     <g id="line2d_8">
      <g>
       <use xlink:href="#m61dbd57494" x="36" y="64.492481" style="fill: #d3d3d3; stroke: #d3d3d3; stroke-width: 2"/>
      </g>
     </g>
     <g id="text_9">
      <text style="font: 14px 'Arial'; text-anchor: end" x="26.5" y="69.50295" transform="rotate(-0 26.5 69.50295)">6</text>
     </g>
    </g>
    <g id="text_10">
     <text style="font: 18px 'Arial'; text-anchor: middle" x="10.92625" y="145.44" transform="rotate(-90 10.92625 145.44)">Axonal output fold change</text>
    </g>
   </g>
   <g id="line2d_9">
    <path d="M 46.145455 142.434726 
L 48.195041 141.830494 
L 50.244628 141.226262 
L 52.294215 140.62203 
L 54.343802 140.017798 
L 56.393388 139.413566 
L 58.442975 138.809334 
L 60.492562 138.205102 
L 62.542149 137.60087 
L 64.591736 136.996638 
L 66.641322 136.392406 
L 68.690909 135.788174 
L 70.740496 135.183942 
L 72.790083 134.57971 
L 74.839669 133.975479 
L 76.889256 133.371247 
L 78.938843 132.767015 
L 80.98843 132.162783 
L 83.038017 131.558551 
L 85.087603 130.954319 
L 87.13719 130.350087 
L 89.186777 129.745855 
L 91.236364 129.141623 
L 93.28595 128.537391 
L 95.335537 127.933159 
L 97.385124 127.328927 
L 99.434711 126.724695 
L 101.484298 126.120463 
L 103.533884 125.516231 
L 105.583471 124.912 
L 107.633058 124.307768 
L 109.682645 123.703536 
L 111.732231 123.099304 
L 113.781818 122.495072 
L 115.831405 121.89084 
L 117.880992 121.286608 
L 119.930579 120.682376 
L 121.980165 120.078144 
L 124.029752 119.473912 
L 126.079339 118.86968 
L 128.128926 118.265448 
L 130.178512 117.661216 
L 132.228099 117.056984 
L 134.277686 116.452752 
L 136.327273 115.84852 
L 138.37686 115.244289 
L 140.426446 114.640057 
L 142.476033 114.035825 
L 144.52562 113.431593 
L 146.575207 112.827361 
L 148.624793 112.223129 
L 150.67438 111.618897 
L 152.723967 111.014665 
L 154.773554 110.410433 
L 156.82314 109.806201 
L 158.872727 109.201969 
L 160.922314 108.597737 
L 162.971901 107.993505 
L 165.021488 107.389273 
L 167.071074 106.785041 
L 169.120661 106.18081 
L 171.170248 105.576578 
L 173.219835 104.972346 
L 175.269421 104.368114 
L 177.319008 103.763882 
L 179.368595 103.15965 
L 181.418182 102.555418 
L 183.467769 101.951186 
L 185.517355 101.346954 
L 187.566942 100.742722 
L 189.616529 100.13849 
L 191.666116 99.534258 
L 193.715702 98.930026 
L 195.765289 98.325794 
L 197.814876 97.721562 
L 199.864463 97.117331 
L 201.91405 96.513099 
L 203.963636 95.908867 
L 206.013223 95.304635 
L 208.06281 94.700403 
L 210.112397 94.096171 
L 212.161983 93.491939 
L 214.21157 92.887707 
L 216.261157 92.283475 
L 218.310744 91.679243 
L 220.360331 91.075011 
L 222.409917 90.470779 
L 224.459504 89.866547 
L 226.509091 89.262315 
L 228.558678 88.658083 
L 230.608264 88.053852 
L 232.657851 87.44962 
L 234.707438 86.845388 
L 236.757025 86.241156 
L 238.806612 85.636924 
L 240.856198 85.032692 
L 242.905785 84.42846 
L 244.955372 83.824228 
L 247.004959 83.219996 
L 249.054545 82.615764 
" clip-path="url(#paae0ff2355)" style="fill: none; stroke: #808080; stroke-width: 3; stroke-linecap: square"/>
   </g>
   <g id="patch_3">
    <path d="M 36 256.32 
L 36 34.56 
" style="fill: none; stroke: #d3d3d3; stroke-width: 2; stroke-linejoin: miter; stroke-linecap: square"/>
   </g>
   <g id="patch_4">
    <path d="M 36 256.32 
L 259.2 256.32 
" style="fill: none; stroke: #d3d3d3; stroke-width: 2; stroke-linejoin: miter; stroke-linecap: square"/>
   </g>
   <g id="text_11">
    <text style="font: 14px 'Arial'; text-anchor: middle" x="147.6" y="28.56" transform="rotate(-0 147.6 28.56)">r = 0.35, p = 0.4982</text>
   </g>
  </g>
 </g>
 <defs>
  <clipPath id="paae0ff2355">
   <rect x="36" y="34.56" width="223.2" height="221.76"/>
  </clipPath>
 </defs>
</svg>
