<?xml version="1.0" encoding="utf-8" standalone="no"?>
<!DOCTYPE svg PUBLIC "-//W3C//DTD SVG 1.1//EN"
  "http://www.w3.org/Graphics/SVG/1.1/DTD/svg11.dtd">
<svg xmlns:xlink="http://www.w3.org/1999/xlink" width="288pt" height="288pt" viewBox="0 0 288 288" xmlns="http://www.w3.org/2000/svg" version="1.1">
 <metadata>
  <rdf:RDF xmlns:dc="http://purl.org/dc/elements/1.1/" xmlns:cc="http://creativecommons.org/ns#" xmlns:rdf="http://www.w3.org/1999/02/22-rdf-syntax-ns#">
   <cc:Work>
    <dc:type rdf:resource="http://purl.org/dc/dcmitype/StillImage"/>
    <dc:date>2025-07-02T15:08:30.274157</dc:date>
    <dc:format>image/svg+xml</dc:format>
    <dc:creator>
     <cc:Agent>
      <dc:title>Matplotlib v3.9.2, https://matplotlib.org/</dc:title>
     </cc:Agent>
    </dc:creator>
   </cc:Work>
  </rdf:RDF>
 </metadata>
 <defs>
  <style type="text/css">*{stroke-linejoin: round; stroke-linecap: butt}</style>
 </defs>
 <g id="figure_1">
  <g id="patch_1">
   <path d="M 0 288 
L 288 288 
L 288 0 
L 0 0 
z
" style="fill: #ffffff"/>
  </g>
  <g id="axes_1">
   <g id="patch_2">
    <path d="M 36 256.32 
L 259.2 256.32 
L 259.2 34.56 
L 36 34.56 
z
" style="fill: #ffffff"/>
   </g>
   <g id="PathCollection_1">
    <defs>
     <path id="m0e3e56b96f" d="M 0 3 
C 0.795609 3 1.55874 2.683901 2.12132 2.12132 
C 2.683901 1.55874 3 0.795609 3 0 
C 3 -0.795609 2.683901 -1.55874 2.12132 -2.12132 
C 1.55874 -2.683901 0.795609 -3 0 -3 
C -0.795609 -3 -1.55874 -2.683901 -2.12132 -2.12132 
C -2.683901 -1.55874 -3 -0.795609 -3 0 
C -3 0.795609 -2.683901 1.55874 -2.12132 2.12132 
C -1.55874 2.683901 -0.795609 3 0 3 
z
" style="stroke: #ffffff; stroke-width: 0.48"/>
    </defs>
    <g clip-path="url(#pd7443aef07)">
     <use xlink:href="#m0e3e56b96f" x="213.322534" y="85.389104" style="fill: #20b49c; stroke: #ffffff; stroke-width: 0.48"/>
     <use xlink:href="#m0e3e56b96f" x="131.233346" y="200.545635" style="fill: #20b49c; stroke: #ffffff; stroke-width: 0.48"/>
     <use xlink:href="#m0e3e56b96f" x="249.054545" y="146.541508" style="fill: #20b49c; stroke: #ffffff; stroke-width: 0.48"/>
     <use xlink:href="#m0e3e56b96f" x="46.145455" y="204.383617" style="fill: #20b49c; stroke: #ffffff; stroke-width: 0.48"/>
     <use xlink:href="#m0e3e56b96f" x="121.114757" y="127.545241" style="fill: #20b49c; stroke: #ffffff; stroke-width: 0.48"/>
     <use xlink:href="#m0e3e56b96f" x="83.078519" y="172.942865" style="fill: #20b49c; stroke: #ffffff; stroke-width: 0.48"/>
     <use xlink:href="#m0e3e56b96f" x="130.628772" y="130.830062" style="fill: #20b49c; stroke: #ffffff; stroke-width: 0.48"/>
     <use xlink:href="#m0e3e56b96f" x="217.865391" y="44.64" style="fill: #20b49c; stroke: #ffffff; stroke-width: 0.48"/>
     <use xlink:href="#m0e3e56b96f" x="147.211909" y="186.209772" style="fill: #20b49c; stroke: #ffffff; stroke-width: 0.48"/>
     <use xlink:href="#m0e3e56b96f" x="62.502508" y="246.24" style="fill: #20b49c; stroke: #ffffff; stroke-width: 0.48"/>
     <use xlink:href="#m0e3e56b96f" x="107.223101" y="143.380784" style="fill: #20b49c; stroke: #ffffff; stroke-width: 0.48"/>
     <use xlink:href="#m0e3e56b96f" x="213.778331" y="65.573611" style="fill: #20b49c; stroke: #ffffff; stroke-width: 0.48"/>
    </g>
   </g>
   <g id="matplotlib.axis_1">
    <g id="xtick_1">
     <g id="line2d_1">
      <defs>
       <path id="m48b2683ccd" d="M 0 0 
L 0 6 
" style="stroke: #d3d3d3; stroke-width: 2"/>
      </defs>
      <g>
       <use xlink:href="#m48b2683ccd" x="69.872706" y="256.32" style="fill: #d3d3d3; stroke: #d3d3d3; stroke-width: 2"/>
      </g>
     </g>
     <g id="text_1">
      <text style="font: 14px 'Arial'; text-anchor: middle" x="69.872706" y="275.840937" transform="rotate(-0 69.872706 275.840937)">4</text>
     </g>
    </g>
    <g id="xtick_2">
     <g id="line2d_2">
      <g>
       <use xlink:href="#m48b2683ccd" x="127.16515" y="256.32" style="fill: #d3d3d3; stroke: #d3d3d3; stroke-width: 2"/>
      </g>
     </g>
     <g id="text_2">
      <text style="font: 14px 'Arial'; text-anchor: middle" x="127.16515" y="275.840937" transform="rotate(-0 127.16515 275.840937)">5</text>
     </g>
    </g>
    <g id="xtick_3">
     <g id="line2d_3">
      <g>
       <use xlink:href="#m48b2683ccd" x="184.457593" y="256.32" style="fill: #d3d3d3; stroke: #d3d3d3; stroke-width: 2"/>
      </g>
     </g>
     <g id="text_3">
      <text style="font: 14px 'Arial'; text-anchor: middle" x="184.457593" y="275.840937" transform="rotate(-0 184.457593 275.840937)">6</text>
     </g>
    </g>
    <g id="xtick_4">
     <g id="line2d_4">
      <g>
       <use xlink:href="#m48b2683ccd" x="241.750037" y="256.32" style="fill: #d3d3d3; stroke: #d3d3d3; stroke-width: 2"/>
      </g>
     </g>
     <g id="text_4">
      <text style="font: 14px 'Arial'; text-anchor: middle" x="241.750037" y="275.840937" transform="rotate(-0 241.750037 275.840937)">7</text>
     </g>
    </g>
    <g id="text_5">
     <text style="font: 18px 'Arial'; text-anchor: middle" x="147.6" y="295.726875" transform="rotate(-0 147.6 295.726875)">Dendritic cable fold change</text>
    </g>
   </g>
   <g id="matplotlib.axis_2">
    <g id="ytick_1">
     <g id="line2d_5">
      <defs>
       <path id="mccb19e5584" d="M 0 0 
L -6 0 
" style="stroke: #d3d3d3; stroke-width: 2"/>
      </defs>
      <g>
       <use xlink:href="#mccb19e5584" x="36" y="253.509793" style="fill: #d3d3d3; stroke: #d3d3d3; stroke-width: 2"/>
      </g>
     </g>
     <g id="text_6">
      <text style="font: 14px 'Arial'; text-anchor: end" x="26.5" y="258.520262" transform="rotate(-0 26.5 258.520262)">3</text>
     </g>
    </g>
    <g id="ytick_2">
     <g id="line2d_6">
      <g>
       <use xlink:href="#mccb19e5584" x="36" y="204.383617" style="fill: #d3d3d3; stroke: #d3d3d3; stroke-width: 2"/>
      </g>
     </g>
     <g id="text_7">
      <text style="font: 14px 'Arial'; text-anchor: end" x="26.5" y="209.394086" transform="rotate(-0 26.5 209.394086)">4</text>
     </g>
    </g>
    <g id="ytick_3">
     <g id="line2d_7">
      <g>
       <use xlink:href="#mccb19e5584" x="36" y="155.257442" style="fill: #d3d3d3; stroke: #d3d3d3; stroke-width: 2"/>
      </g>
     </g>
     <g id="text_8">
      <text style="font: 14px 'Arial'; text-anchor: end" x="26.5" y="160.267911" transform="rotate(-0 26.5 160.267911)">5</text>
     </g>
    </g>
    <g id="ytick_4">
     <g id="line2d_8">
      <g>
       <use xlink:href="#mccb19e5584" x="36" y="106.131267" style="fill: #d3d3d3; stroke: #d3d3d3; stroke-width: 2"/>
      </g>
     </g>
     <g id="text_9">
      <text style="font: 14px 'Arial'; text-anchor: end" x="26.5" y="111.141736" transform="rotate(-0 26.5 111.141736)">6</text>
     </g>
    </g>
    <g id="ytick_5">
     <g id="line2d_9">
      <g>
       <use xlink:href="#mccb19e5584" x="36" y="57.005092" style="fill: #d3d3d3; stroke: #d3d3d3; stroke-width: 2"/>
      </g>
     </g>
     <g id="text_10">
      <text style="font: 14px 'Arial'; text-anchor: end" x="26.5" y="62.01556" transform="rotate(-0 26.5 62.01556)">7</text>
     </g>
    </g>
    <g id="text_11">
     <text style="font: 18px 'Arial'; text-anchor: middle" x="10.92625" y="145.44" transform="rotate(-90 10.92625 145.44)">Dendritic input fold change</text>
    </g>
   </g>
   <g id="line2d_10">
    <path d="M 46.145455 211.954305 
L 48.195041 210.571052 
L 50.244628 209.1878 
L 52.294215 207.804548 
L 54.343802 206.421295 
L 56.393388 205.038043 
L 58.442975 203.654791 
L 60.492562 202.271538 
L 62.542149 200.888286 
L 64.591736 199.505034 
L 66.641322 198.121781 
L 68.690909 196.738529 
L 70.740496 195.355277 
L 72.790083 193.972024 
L 74.839669 192.588772 
L 76.889256 191.20552 
L 78.938843 189.822267 
L 80.98843 188.439015 
L 83.038017 187.055763 
L 85.087603 185.67251 
L 87.13719 184.289258 
L 89.186777 182.906006 
L 91.236364 181.522753 
L 93.28595 180.139501 
L 95.335537 178.756249 
L 97.385124 177.372996 
L 99.434711 175.989744 
L 101.484298 174.606491 
L 103.533884 173.223239 
L 105.583471 171.839987 
L 107.633058 170.456734 
L 109.682645 169.073482 
L 111.732231 167.69023 
L 113.781818 166.306977 
L 115.831405 164.923725 
L 117.880992 163.540473 
L 119.930579 162.15722 
L 121.980165 160.773968 
L 124.029752 159.390716 
L 126.079339 158.007463 
L 128.128926 156.624211 
L 130.178512 155.240959 
L 132.228099 153.857706 
L 134.277686 152.474454 
L 136.327273 151.091202 
L 138.37686 149.707949 
L 140.426446 148.324697 
L 142.476033 146.941445 
L 144.52562 145.558192 
L 146.575207 144.17494 
L 148.624793 142.791688 
L 150.67438 141.408435 
L 152.723967 140.025183 
L 154.773554 138.641931 
L 156.82314 137.258678 
L 158.872727 135.875426 
L 160.922314 134.492174 
L 162.971901 133.108921 
L 165.021488 131.725669 
L 167.071074 130.342417 
L 169.120661 128.959164 
L 171.170248 127.575912 
L 173.219835 126.19266 
L 175.269421 124.809407 
L 177.319008 123.426155 
L 179.368595 122.042903 
L 181.418182 120.65965 
L 183.467769 119.276398 
L 185.517355 117.893146 
L 187.566942 116.509893 
L 189.616529 115.126641 
L 191.666116 113.743389 
L 193.715702 112.360136 
L 195.765289 110.976884 
L 197.814876 109.593632 
L 199.864463 108.210379 
L 201.91405 106.827127 
L 203.963636 105.443875 
L 206.013223 104.060622 
L 208.06281 102.67737 
L 210.112397 101.294118 
L 212.161983 99.910865 
L 214.21157 98.527613 
L 216.261157 97.144361 
L 218.310744 95.761108 
L 220.360331 94.377856 
L 222.409917 92.994604 
L 224.459504 91.611351 
L 226.509091 90.228099 
L 228.558678 88.844847 
L 230.608264 87.461594 
L 232.657851 86.078342 
L 234.707438 84.69509 
L 236.757025 83.311837 
L 238.806612 81.928585 
L 240.856198 80.545333 
L 242.905785 79.16208 
L 244.955372 77.778828 
L 247.004959 76.395576 
L 249.054545 75.012323 
" clip-path="url(#pd7443aef07)" style="fill: none; stroke: #808080; stroke-width: 3; stroke-linecap: square"/>
   </g>
   <g id="patch_3">
    <path d="M 36 256.32 
L 36 34.56 
" style="fill: none; stroke: #d3d3d3; stroke-width: 2; stroke-linejoin: miter; stroke-linecap: square"/>
   </g>
   <g id="patch_4">
    <path d="M 36 256.32 
L 259.2 256.32 
" style="fill: none; stroke: #d3d3d3; stroke-width: 2; stroke-linejoin: miter; stroke-linecap: square"/>
   </g>
   <g id="text_12">
    <text style="font: 14px 'Arial'; text-anchor: middle" x="147.6" y="28.56" transform="rotate(-0 147.6 28.56)">r = 0.74, p = 0.0055</text>
   </g>
  </g>
 </g>
 <defs>
  <clipPath id="pd7443aef07">
   <rect x="36" y="34.56" width="223.2" height="221.76"/>
  </clipPath>
 </defs>
</svg>
